<svg xmlns="http://www.w3.org/2000/svg" width="28" height="28" viewBox="0 0 28 28">
    <path fill="#898989" fill-rule="nonzero" d="M27.727 13.773L14.957.274C14.82.07 14.614 0 14.34 0c-.204 0-.478.069-.614.274L.887 13.773a.87.87 0 0 0 0 1.233.864.864 0 0 0 1.23 0l1.161-1.302v12.814c0 .48.41.89.82.89h5.941c.478 0 .82-.41.82-.822v-8.565h6.897v8.565c0 .48.41.891.82.891h5.941c.478 0 .82-.411.82-.89V13.703l1.16 1.234c.137.205.41.274.615.274.205 0 .41-.069.615-.206.341-.411.341-.96 0-1.233zm-4.03-1.576v13.498h-4.234V17.13c0-.48-.41-.89-.82-.89h-8.536c-.478 0-.82.41-.82.822v8.565H4.986v-13.43c0-.069 0-.137-.068-.206l9.424-9.867 9.357 9.867v.206z"/>
</svg>
