<svg xmlns="http://www.w3.org/2000/svg" width="18" height="18" viewBox="0 0 18 18">
    <g fill="#00AA3C" fill-rule="nonzero">
        <path d="M9 0a8.99 8.99 0 0 0-9 9c0 4.978 4.022 9 9 9s9-4.022 9-9-4.022-9-9-9zm0 16.903c-4.331 0-7.875-3.572-7.875-7.903 0-4.331 3.544-7.875 7.875-7.875 4.331 0 7.875 3.544 7.875 7.875 0 4.331-3.544 7.903-7.875 7.903z"/>
        <path d="M14.4 9.563H9A.564.564 0 0 1 8.437 9c0-.31.254-.563.563-.563h5.4c.31 0 .563.254.563.563 0 .31-.254.563-.563.563z"/>
        <path d="M9 9.563A.564.564 0 0 1 8.437 9V2.475c0-.31.254-.563.563-.563.31 0 .563.254.563.563V9c0 .31-.254.563-.563.563z"/>
    </g>
</svg>
