<svg xmlns="http://www.w3.org/2000/svg" width="18" height="18" viewBox="0 0 18 18">
    <path fill="#00AA3C" fill-rule="nonzero" d="M16.957.87C16.367.31 15.663 0 14.96 0c-1.125 0-1.941.73-2.166.955-.338.309-11.14 11.12-11.14 11.12-.085.084-.113.168-.141.253-.254.898-1.463 4.886-1.491 4.942a.655.655 0 0 0 .14.59c.113.084.253.14.394.14.056 0 .113 0 .169-.028.028 0 4.164-1.348 4.839-1.545a.613.613 0 0 0 .225-.14c.422-.421 10.521-10.39 11.197-11.064.703-.702 1.04-1.46 1.012-2.218.029-.73-.337-1.46-1.04-2.134zm-4.36 1.882c.281.056.956.309 1.66.983.703.702.9 1.516.928 1.685a3087.08 3087.08 0 0 0-9.312 9.21c-.197-.421-.478-.954-.956-1.432a5.08 5.08 0 0 0-1.66-1.123l9.34-9.323zM2.469 13.03c.31.084.957.309 1.604.982.506.506.731 1.068.844 1.405-.788.252-2.504.842-3.573 1.179.337-1.04.872-2.696 1.125-3.566zm13.729-8.621l-.113.112a4.504 4.504 0 0 0-1.04-1.6 5.29 5.29 0 0 0-1.548-1.068l.085-.084c.056-.056.647-.618 1.378-.618.422 0 .844.197 1.238.562.478.45.703.899.703 1.32 0 .421-.225.898-.703 1.376z"/>
</svg>
