<svg xmlns="http://www.w3.org/2000/svg" width="20" height="18" viewBox="0 0 20 18">
    <g fill="#00AA3C" fill-rule="nonzero">
        <path d="M19.469 14.614a.524.524 0 0 1-.375-.153l-4.469-4.363a5.946 5.946 0 0 1-3.813 1.373c-3.25 0-5.874-2.563-5.874-5.735C4.968 2.563 7.594 0 10.843 0c3.219 0 5.844 2.563 5.844 5.736a5.768 5.768 0 0 1-1.313 3.63l4.469 4.363a.556.556 0 0 1 .156.366.556.556 0 0 1-.156.366c-.094.122-.25.153-.375.153zM10.844 1.037c-2.656 0-4.813 2.105-4.813 4.699 0 2.593 2.157 4.698 4.813 4.698 2.656 0 4.781-2.105 4.781-4.698 0-2.594-2.156-4.699-4.781-4.699z"/>
        <path d="M1.125 17.908A1.107 1.107 0 0 1 0 16.81V3.936c0-.61.5-1.099 1.125-1.099l3.75.03-.5 1.13H1.187v12.752h12v-4.881l1.188-.64v5.613c0 .61-.5 1.098-1.125 1.098H1.125v-.03z"/>
    </g>
</svg>
