<svg xmlns="http://www.w3.org/2000/svg" width="31" height="34" viewBox="0 0 31 34">
    <g fill="#00AA3C" fill-rule="nonzero">
        <path d="M26.445 9.726c0 .316.076.632.076.948 0 .712-.076 1.345-.152 1.977 1.292 1.66 2.128 3.716 2.128 6.01 0 3.558-1.976 6.641-4.94 8.46v3.716l-3.343-2.451c-.836.158-1.672.316-2.508.316-2.508 0-3.876-.79-5.7-2.214-.531.08-1.063.08-1.595.08-.38 0-.76 0-1.14-.08 2.356 2.452 4.711 4.033 8.51 4.033.837 0 1.597-.08 2.357-.237l5.471 3.637v-6.01c2.964-2.213 4.94-5.613 4.94-9.488-.153-3.4-1.672-6.483-4.104-8.697z"/>
        <path d="M12.767 0C5.699 0 0 5.377 0 12.098c0 3.874 1.368 7.116 3.952 9.488v6.01l5.547-3.48c.76.158 2.508.317 3.268.317 7.067 0 11.778-5.693 11.778-12.335C24.545 5.377 18.618 0 12.767 0zm0 22.298c-.912 0-2.736-.08-3.496-.317l-3.344 2.452v-3.796c-2.355-2.135-3.951-4.902-3.951-8.46 0-5.614 4.635-10.121 10.79-10.121 4.864 0 9.803 4.507 9.803 10.12 0 5.615-3.875 10.122-9.802 10.122z"/>
        <path d="M7.827 12.177c0 .87-.684 1.581-1.444 1.581-.76 0-1.444-.711-1.444-1.581s.684-1.582 1.444-1.582c.76 0 1.444.712 1.444 1.582zM13.754 12.177c0 .87-.684 1.581-1.443 1.581-.76 0-1.444-.711-1.444-1.581s.684-1.582 1.444-1.582c.76 0 1.443.712 1.443 1.582zM19.606 12.177c0 .87-.684 1.581-1.444 1.581-.76 0-1.444-.711-1.444-1.581s.684-1.582 1.444-1.582c.76 0 1.444.712 1.444 1.582z"/>
    </g>
</svg>
