<svg xmlns="http://www.w3.org/2000/svg" width="25" height="28" viewBox="0 0 25 28">
    <g fill="#898989" fill-rule="nonzero">
        <path d="M21.605 8.01c0 .26.062.52.062.78 0 .587-.062 1.108-.124 1.629 1.056 1.367 1.739 3.06 1.739 4.948 0 2.93-1.615 5.47-4.036 6.968v3.06l-2.732-2.018c-.683.13-1.365.26-2.048.26-2.05 0-3.167-.651-4.657-1.823-.434.065-.869.065-1.303.065-.31 0-.621 0-.932-.065 1.925 2.019 3.85 3.32 6.954 3.32.683 0 1.303-.064 1.924-.194l4.47 2.995v-4.949c2.422-1.823 4.036-4.623 4.036-7.814a10.316 10.316 0 0 0-3.353-7.163z"/>
        <path d="M10.43 0C4.656 0 0 4.428 0 9.963c0 3.19 1.118 5.86 3.228 7.814v4.949l4.533-2.866c.62.13 2.048.26 2.67.26 5.773 0 9.622-4.687 9.622-10.157C20.053 4.428 15.211 0 10.43 0zm0 18.363c-.745 0-2.235-.065-2.856-.26L4.843 20.12v-3.126c-1.925-1.758-3.229-4.037-3.229-6.967 0-4.623 3.787-8.335 8.816-8.335 3.974 0 8.009 3.712 8.009 8.335 0 4.623-3.166 8.335-8.009 8.335z"/>
        <path d="M6.395 10.028c0 .716-.56 1.302-1.18 1.302-.62 0-1.18-.586-1.18-1.302 0-.716.56-1.302 1.18-1.302.62 0 1.18.586 1.18 1.302zM11.237 10.028c0 .716-.559 1.302-1.18 1.302-.62 0-1.179-.586-1.179-1.302 0-.716.559-1.302 1.18-1.302.62 0 1.18.586 1.18 1.302zM16.018 10.028c0 .716-.559 1.302-1.18 1.302-.62 0-1.18-.586-1.18-1.302 0-.716.56-1.302 1.18-1.302.621 0 1.18.586 1.18 1.302z"/>
    </g>
</svg>
