<svg xmlns="http://www.w3.org/2000/svg" width="28" height="28" viewBox="0 0 28 28">
    <path fill="#898989" fill-rule="evenodd" d="M23.477 16.17l.076-7.21c0-5.04-4.317-9.03-9.694-8.96-5.377.07-9.77 4.13-9.845 9.1l-.076 7.28L0 23.59l8.785-.07c0 2.52 2.12 4.48 4.847 4.48 2.65 0 4.923-2.1 4.923-4.55l8.71-.07-3.788-7.21zm-9.845 10.01c-1.59 0-2.878-1.19-2.878-2.66l5.832-.07c-.076 1.47-1.364 2.73-2.954 2.73zM2.954 21.77l2.953-5.46.076-7.21c.076-3.99 3.56-7.28 7.876-7.28 4.317-.07 7.725 3.15 7.725 7.14l-.076 7.21 2.878 5.39-21.432.21z"/>
</svg>
