<svg xmlns="http://www.w3.org/2000/svg" width="28" height="28" viewBox="0 0 28 28">
    <g fill="#898989" fill-rule="nonzero">
        <path d="M26.25 11.34l-2.24-.49c-.14-.56-.42-1.12-.7-1.61l1.19-2.03c.42-.7.7-1.82 0-2.45L23.31 3.5c-.7-.7-1.82-.56-2.52-.07l-1.96 1.26c-.49-.28-1.05-.49-1.61-.7l-.49-2.24C16.59.91 15.82 0 14.91 0h-1.75c-.98 0-1.54.91-1.75 1.75l-.56 2.24c-.63.21-1.19.42-1.68.7L7.14 3.43c-.77-.49-1.89-.63-2.59.07L3.29 4.76c-.7.7-.42 1.75 0 2.45l1.26 2.1c-.21.49-.49.98-.63 1.54l-2.24.49c-.77.14-1.68.91-1.68 1.89v1.75c0 .98.91 1.54 1.75 1.75l2.24.56c.14.49.35.98.56 1.4l-1.26 2.17c-.42.7-.7 1.82 0 2.45l1.26 1.19c.7.7 1.82.56 2.52.07l2.03-1.26c.56.28 1.12.56 1.68.7l.56 2.24c.21.84.77 1.75 1.75 1.75h1.75c.98 0 1.68-.91 1.82-1.75l.49-2.31c.56-.14 1.05-.42 1.61-.63l1.96 1.26c.7.49 1.82.63 2.52-.07l1.26-1.26c.7-.7.42-1.75 0-2.45l-1.19-2.03c.28-.49.49-.98.63-1.47l2.24-.56c.84-.21 1.75-.77 1.75-1.75v-1.75c.07-.98-.84-1.75-1.68-1.89zm0 3.5c-.07.07-.21.14-.42.14l-3.22.84-.28.91c-.14.42-.35.84-.56 1.26l-.42.84 1.75 2.87c.14.14.14.35.14.42l-1.12 1.12c-.14 0-.21-.07-.28-.14l-2.94-1.82-.91.49c-.42.21-.84.42-1.33.56l-.98.28-.7 3.29c0 .14-.14.35-.21.35h-1.54c-.07-.07-.14-.21-.14-.42l-.84-3.22-.91-.28c-.49-.14-.98-.35-1.4-.63l-.91-.49-2.87 1.89c-.14.07-.21.14-.35.14l-1.12-1.12c0-.07.07-.21.14-.42l1.82-3.01-.42-.84c-.21-.42-.35-.77-.49-1.12l-.28-.91-3.22-.84c-.21-.07-.35-.14-.42-.14v-1.61l.28-.14 3.29-.7.28-.98c.14-.42.28-.84.49-1.26l.42-.84L4.83 6.3c-.14-.14-.14-.28-.21-.42l1.19-1.19c.07.07.21.14.28.21l2.94 1.89.91-.49c.49-.21.91-.42 1.4-.63l.91-.28.77-3.22c.07-.21.14-.35.14-.42h1.61l.14.28.7 3.36.98.28c.42.14.91.35 1.33.56l.98.49 2.8-1.82c.14-.07.28-.14.35-.14l1.12 1.12c0 .07-.07.21-.14.42l-1.75 2.87.42.84c.21.49.42.91.56 1.33l.28.98 3.22.7c.21.07.35.14.35.21l.14 1.61zM14 8.75c-2.94 0-5.25 2.38-5.25 5.25s2.38 5.25 5.25 5.25 5.25-2.38 5.25-5.25S16.94 8.75 14 8.75zm0 8.75c-1.96 0-3.5-1.54-3.5-3.5s1.54-3.5 3.5-3.5 3.5 1.54 3.5 3.5-1.54 3.5-3.5 3.5z"/>
        <path d="M14 8.75c-2.94 0-5.25 2.38-5.25 5.25s2.38 5.25 5.25 5.25 5.25-2.38 5.25-5.25S16.94 8.75 14 8.75zm0 8.75c-1.96 0-3.5-1.54-3.5-3.5s1.54-3.5 3.5-3.5 3.5 1.54 3.5 3.5-1.54 3.5-3.5 3.5z"/>
        <path d="M14 8.75c-2.94 0-5.25 2.38-5.25 5.25s2.38 5.25 5.25 5.25 5.25-2.38 5.25-5.25S16.94 8.75 14 8.75zm0 8.75c-1.96 0-3.5-1.54-3.5-3.5s1.54-3.5 3.5-3.5 3.5 1.54 3.5 3.5-1.54 3.5-3.5 3.5z"/>
    </g>
</svg>
