<svg xmlns="http://www.w3.org/2000/svg" width="42" height="42" viewBox="0 0 42 42">
    <path fill="#00AA3C" fill-rule="nonzero" d="M22.387 11.076a.574.574 0 0 0-.565-.572h-1.746a.574.574 0 0 0-.565.572c0 .312.256.572.565.572h1.746c.36 0 .565-.26.565-.572zm15.818 25.428h-.668v-.78a3.723 3.723 0 0 0 1.541-2.08c.514-.156.873-.624.873-1.144v-.988c0-.52-.308-.936-.77-1.144-.052-1.872-1.541-3.38-3.39-3.38-.41 0-.822.104-1.181.208-.051-.052-.051-.104-.103-.156l-4.93-4.836v-2.6c0-2.704-2.157-4.888-4.828-4.888h-1.438v-1.612a5.076 5.076 0 0 0 2.414-3.276c.719-.156 1.284-.78 1.284-1.56v-1.56c0-.728-.514-1.352-1.181-1.508v-.156c0-2.808-2.26-5.044-4.982-5.044-2.773 0-4.982 2.288-4.982 5.044v.104c-.667.156-1.181.78-1.181 1.56v1.56c0 .78.565 1.456 1.284 1.56.308 1.404 1.181 2.6 2.414 3.276v1.664h-1.336c-2.67 0-4.827 2.184-4.827 4.888v2.028L7.39 27.3c-.41-.208-.924-.312-1.438-.312-1.849 0-3.39 1.508-3.39 3.38-.462.156-.77.624-.77 1.144v.988c0 .572.36 1.04.873 1.144.206.884.77 1.612 1.49 2.08v.78h-.668C1.638 36.504.2 38.012.2 39.832V41.6h11.556v-1.768c0-1.872-1.49-3.328-3.287-3.328H7.8v-.78a3.723 3.723 0 0 0 1.54-2.08c.514-.156.874-.624.874-1.144v-.988c0-.52-.308-.936-.77-1.144 0-.936-.411-1.82-1.08-2.444l4.47-5.252h7.549v4.368c-1.592.26-2.825 1.664-2.876 3.328-.463.156-.77.624-.77 1.144v.988c0 .572.359 1.04.872 1.144.206.884.77 1.612 1.49 2.08v.78h-.668c-1.849 0-3.287 1.508-3.287 3.328V41.6h11.556v-1.768c0-1.872-1.49-3.328-3.287-3.328h-.668v-.78a3.723 3.723 0 0 0 1.54-2.08c.514-.156.874-.624.874-1.144v-.988c0-.52-.308-.936-.77-1.144-.052-1.664-1.284-3.068-2.876-3.328v-4.368h6.933l5.136 5.096c-.77.624-1.233 1.56-1.284 2.6-.462.156-.77.624-.77 1.144v.988c0 .572.359 1.04.872 1.144.206.884.77 1.612 1.49 2.08v.78h-.668c-1.849 0-3.287 1.508-3.287 3.328V41.6h11.556v-1.768c0-1.82-1.49-3.328-3.287-3.328zM8.417 37.596c1.233 0 2.209.988 2.209 2.236v.676H1.279v-.676c0-1.248.975-2.236 2.208-2.236h1.746v-1.404c.206.052.462.104.72.104.256 0 .461-.052.718-.104v1.404h1.746zm.514-6.188c.051 0 .154.052.154.104v.988c0 .052-.051.104-.154.104l-.565-.104-.051.572c-.155 1.196-1.13 2.08-2.312 2.08-1.18 0-2.157-.884-2.31-2.08L3.64 32.5l-.565.104c-.051 0-.154-.052-.154-.104v-.988c0-.052.051-.104.154-.104l.616.104v-1.04c0-1.3 1.028-2.34 2.311-2.34 1.284 0 2.312 1.04 2.312 2.34v1.04l.616-.104zM24.749 5.044v.052c-1.181-.364-1.643-2.184-1.643-2.236l-.257-1.248c1.13.728 1.9 1.976 1.9 3.432zm-7.806 0c0-2.184 1.746-3.952 3.903-3.952.719 0 1.387.208 1.952.52l-.668 1.092s-1.592 2.392-5.187 2.444v-.104zm.051 4.16l-.051-.572-.565.104h-.103a.463.463 0 0 1-.462-.468v-1.56c0-.26.205-.468.41-.468.052.052.155.052.206.052h.36l.205.052v-.052c2.825-.052 4.57-1.3 5.444-2.184.36.832 1.079 1.924 2.362 2.132v.052l.617-.104h.051c.257 0 .462.208.462.468v1.56c0 .26-.205.468-.462.468h-.103L24.8 8.58l-.05.572c-.258 1.976-1.901 3.484-3.904 3.484-1.952.052-3.646-1.456-3.852-3.432zm2.465 6.656v-2.288c.462.156.925.208 1.387.208.462 0 .924-.052 1.387-.208v2.288h1.232l-2.62 3.9-2.618-3.9h1.232zm-6.111 5.72c0-.052-.052-.104-.052-.156v-1.82c0-2.08 1.644-3.744 3.647-3.796 0 0 0 .052.051.052l3.8 5.668h-7.446v.052zm9.963 16.016c1.233 0 2.209.988 2.209 2.236v.676h-9.348v-.676c0-1.248.976-2.236 2.209-2.236h1.746v-1.404c.205.052.462.104.719.104.257 0 .462-.052.719-.104v1.404h1.746zm-.154-7.124v1.04l.616-.104c.052 0 .154.052.154.104v.988c0 .052-.051.104-.102.104l-.565-.104-.052.572c-.154 1.196-1.13 2.08-2.31 2.08-1.182 0-2.158-.884-2.312-2.08l-.051-.572-.565.104c-.051 0-.154-.052-.154-.104v-.988c0-.052.051-.104.154-.104l.616.104v-1.04c0-1.3 1.027-2.34 2.311-2.34 1.233-.052 2.26 1.04 2.26 2.34zm5.29-8.892h-7.55l3.8-5.668s0-.052.052-.052c2.003.052 3.647 1.716 3.647 3.796v1.924h.05zm4.982 11.492l-.052-.572-.565.104c-.051 0-.154-.052-.154-.104v-.988c0-.052.052-.104.154-.104l.617.104v-1.04c0-1.3 1.027-2.34 2.31-2.34 1.285 0 2.312 1.04 2.312 2.34v1.04l.616-.104c.052 0 .154.052.154.104v.988c0 .052-.051.104-.102.104l-.565-.104-.052.572c-.154 1.196-1.13 2.08-2.31 2.08a2.353 2.353 0 0 1-2.363-2.08zm6.984 7.436h-9.398v-.676c0-1.248.976-2.236 2.208-2.236h1.746v-1.404c.206.052.463.104.72.104.256 0 .462-.052.718-.104v1.404h1.798c1.233 0 2.208.988 2.208 2.236v.676z"/>
</svg>
