<svg xmlns="http://www.w3.org/2000/svg" width="30" height="41" viewBox="0 0 30 41">
    <path fill="#00AA3C" fill-rule="nonzero" d="M25.001 27.2V13.6c2.357-1.15 4.032-3.557 4.032-6.382 0-2.981-1.937-5.701-4.765-6.695-.21-.052-.419 0-.628.105a.644.644 0 0 0-.262.523v6.277h-3.037V1.15a.644.644 0 0 0-.262-.523c-.104-.105-.366-.157-.523-.053-2.828.994-4.765 3.662-4.765 6.696 0 2.824 1.623 5.23 4.032 6.381V27.2c-2.357 1.15-4.032 3.557-4.032 6.382 0 2.981 1.937 5.701 4.765 6.695.21.052.419.052.576-.105a.644.644 0 0 0 .261-.523v-6.277h3.038v6.277c0 .21.104.419.261.523a.972.972 0 0 0 .367.105c.052 0 .157 0 .21-.052 2.827-.994 4.764-3.662 4.764-6.696a7.197 7.197 0 0 0-4.032-6.329zM16.047 7.218a5.82 5.82 0 0 1 3.09-5.126v5.963c0 .367.262.628.628.628h4.294a.605.605 0 0 0 .628-.628V2.092a5.82 5.82 0 0 1 3.09 5.126c0 3.191-2.618 5.807-5.865 5.807-3.247.052-5.865-2.563-5.865-5.807zm7.698 6.853v12.606a7.05 7.05 0 0 0-1.833-.262 7.05 7.05 0 0 0-1.833.262V14.07a7.05 7.05 0 0 0 1.833.261c.628 0 1.204-.104 1.833-.261zm.942 24.584v-5.91a.605.605 0 0 0-.628-.628h-4.294a.605.605 0 0 0-.628.628v5.963a5.82 5.82 0 0 1-3.09-5.126c0-3.191 2.618-5.807 5.865-5.807 3.247 0 5.865 2.616 5.865 5.807a5.948 5.948 0 0 1-3.09 5.073zM11.073 14.228V9.572c0-2.301-1.676-4.237-3.823-4.55V1.308A.605.605 0 0 0 6.622.68H1.228C.914.68.6.994.6 1.308V32.43c0 .366.262.627.628.627h.21v3.767c0 .366.262.627.628.627h1.205v2.04c0 .366.261.628.628.628a.605.605 0 0 0 .628-.628v-2.04h1.205a.605.605 0 0 0 .628-.627v-3.767h.21a.605.605 0 0 0 .628-.627V6.329c1.414.314 2.566 1.674 2.566 3.243v4.603A2.198 2.198 0 0 0 8.14 16.32c0 1.203.995 2.197 2.2 2.197 1.204 0 2.199-.994 2.199-2.197.105-.994-.576-1.83-1.466-2.092zM5.156 36.197H2.695v-3.139h2.408v3.139h.053zm.837-4.394H1.857V6.277h4.136v25.526zm0-26.781H1.857V1.935h4.136v3.087zm4.451 12.24a.938.938 0 0 1-.942-.942c0-.523.419-.942.942-.942.524 0 .943.419.943.942a.938.938 0 0 1-.943.942z"/>
</svg>
