<svg xmlns="http://www.w3.org/2000/svg" width="46" height="36" viewBox="0 0 46 36">
    <path fill="#00AA3C" fill-rule="nonzero" d="M38.14 5.621V.6H7.86v5.021H.6V35.8h44.8V5.621h-7.26zM18.468 23.584c0 .414-.67.88-1.597.88-.927 0-1.596-.466-1.596-.88 0-2.278 1.957-4.297 4.789-5.125-.979 1.242-1.545 3.054-1.596 5.125zm4.428-5.54c.052 0 .052 0 0 0 1.75 0 3.244 2.589 3.296 5.643-.155.466-1.39 1.087-3.193 1.087-1.957 0-3.244-.725-3.244-1.19 0-.104-.052-.208-.052-.26.155-2.898 1.545-5.228 3.193-5.28zm-5.922 16.514c.052-.104.103-.207.103-.31v-8.542c.876-.052 1.596-.362 2.06-.88.772.673 2.163 1.139 3.862 1.139 1.648 0 3.09-.466 3.81-1.14.464.467 1.236.83 2.06.83v8.592c0 .104.052.207.103.31H16.975zm10.556-10.974c0-.104-.051-.208-.102-.311-.103-1.967-.721-3.675-1.597-4.866 2.78.777 4.79 2.744 4.892 5.021v.156c0 .414-.67.88-1.596.88-.927 0-1.597-.466-1.597-.88zm16.633 10.974h-14.11c.052-.104.104-.207.104-.31V25.55c.978-.26 1.648-.932 1.802-1.76.051-.052.051-.156.051-.207 0-3.728-4.016-6.782-8.96-6.782H23h-.051c-4.892.052-8.858 3.054-8.858 6.782v.051c0 .88.773 1.657 1.803 1.916v8.696c0 .104.051.207.103.31H1.836V6.865h7.26V1.842h27.859v5.022h7.26v27.694h-.05zM12.547 6.968h20.34c.36 0 .618-.26.618-.622a.597.597 0 0 0-.618-.621h-20.34a.597.597 0 0 0-.618.62c0 .363.309.622.618.622zm-8.548 3.26c0 .31.257.621.618.621h36.2c.36 0 .618-.258.618-.62a.597.597 0 0 0-.618-.622h-36.2c-.31 0-.618.31-.618.621zm36.818 3.261h-36.2a.597.597 0 0 0-.618.622c0 .362.257.62.618.62h36.2c.36 0 .618-.258.618-.62a.597.597 0 0 0-.618-.622zm0 3.831H34.02a.597.597 0 0 0-.618.621c0 .363.257.621.618.621h6.797c.36 0 .618-.258.618-.62a.597.597 0 0 0-.618-.622zm0 3.83H34.02a.597.597 0 0 0-.618.622c0 .362.257.62.618.62h6.797c.36 0 .618-.258.618-.62a.628.628 0 0 0-.618-.621zm0 3.883H34.02a.597.597 0 0 0-.618.621c0 .362.257.621.618.621h6.797c.36 0 .618-.259.618-.62a.597.597 0 0 0-.618-.622zm0 3.83H34.02a.597.597 0 0 0-.618.622c0 .31.257.62.618.62h6.797c.36 0 .618-.258.618-.62a.597.597 0 0 0-.618-.621zM12.289 17.32H4.617a.597.597 0 0 0-.618.621c0 .363.257.621.618.621h7.62c.361 0 .619-.258.619-.62 0-.363-.258-.622-.567-.622zm0 3.83H4.617a.597.597 0 0 0-.618.622c0 .362.257.62.618.62h7.62c.361 0 .619-.258.619-.62 0-.31-.258-.621-.567-.621zm0 3.883H4.617a.597.597 0 0 0-.618.621c0 .362.257.621.618.621h7.62c.361 0 .619-.259.619-.62 0-.363-.258-.622-.567-.622zm0 3.83H4.617a.597.597 0 0 0-.618.622c0 .31.257.62.618.62h7.62c.361 0 .619-.258.619-.62 0-.363-.258-.621-.567-.621z"/>
</svg>
