<?xml version="1.0" encoding="utf-8"?>
<!-- Generator: Adobe Illustrator 22.1.0, SVG Export Plug-In . SVG Version: 6.00 Build 0)  -->
<svg version="1.1" id="Lager_1" xmlns="http://www.w3.org/2000/svg" xmlns:xlink="http://www.w3.org/1999/xlink" x="0px" y="0px"
	 width="60px" height="83px" viewBox="0 0 60 83" style="enable-background:new 0 0 60 83;" xml:space="preserve">
<style type="text/css">
	.st0{fill:#00AA3C;}
</style>
<g>
	<path class="st0" d="M21.8,68.7c-0.6-0.3-1.3-0.1-1.6,0.5c-0.8,1.3-4.3,2.7-8.9,2.7c-4.7,0-8.2-1.4-8.9-2.8c-0.3-0.6-1-0.8-1.6-0.6
		c-0.6,0.3-0.8,1-0.6,1.6c1.2,2.5,5.6,4.1,11,4.1c5.2,0,9.6-1.6,10.9-3.9C22.6,69.8,22.4,69.1,21.8,68.7z"/>
	<path class="st0" d="M21.8,77.4c-0.6-0.3-1.3-0.1-1.6,0.5c-0.8,1.3-4.3,2.7-8.9,2.7c-4.7,0-8.2-1.4-8.9-2.8c-0.3-0.6-1-0.8-1.6-0.5
		c-0.6,0.3-0.9,1-0.6,1.6c1.2,2.5,5.6,4.1,11,4.1c5.2,0,9.6-1.6,10.9-3.9C22.6,78.4,22.4,77.7,21.8,77.4z"/>
	<path class="st0" d="M21.8,73.1c-0.6-0.3-1.3-0.1-1.6,0.5c-0.8,1.3-4.3,2.7-8.9,2.7c-4.7,0-8.2-1.4-8.9-2.8c-0.3-0.6-1-0.8-1.6-0.5
		c-0.6,0.3-0.9,1-0.6,1.6c1.2,2.5,5.6,4.1,11,4.1c5.2,0,9.6-1.6,10.9-3.9C22.6,74.1,22.4,73.4,21.8,73.1z"/>
	<path class="st0" d="M33.1,31.8c0.7,0,1.2-0.5,1.2-1.2s-0.5-1.2-1.2-1.2h-5.1c-0.7,0-1.2,0.5-1.2,1.2c0,0.7,0.5,1.2,1.2,1.2
		L33.1,31.8L33.1,31.8z"/>
	<path class="st0" d="M52.1,69.4c0.5-0.5,0.5-1.2,0-1.7c-0.5-0.5-1.2-0.5-1.7,0l-6.1,6c-0.2,0.2-0.3,0.5-0.3,0.8
		c0,0.7,0.5,1.2,1.2,1.2l0,0c0.3,0,0.6-0.1,0.8-0.3L52.1,69.4z"/>
	<path class="st0" d="M38.7,69.4c0.4-0.5,0.4-1.2,0-1.7c-0.5-0.4-1.2-0.4-1.7,0l-2.2,2.2l-2.2-2.2c-0.5-0.4-1.2-0.4-1.6,0
		c-0.5,0.4-0.5,1.2,0,1.7l2.2,2.2l-2.2,2.2c-0.2,0.2-0.3,0.5-0.3,0.8c0,0.7,0.5,1.2,1.2,1.2l0,0c0.3,0,0.6-0.1,0.8-0.3l2.2-2.2
		l2.2,2.2c0.2,0.2,0.5,0.3,0.8,0.3l0,0c0.3,0,0.6-0.1,0.8-0.3c0.5-0.5,0.5-1.2,0-1.7l-2.2-2.2L38.7,69.4
		C38.7,69.4,38.7,69.4,38.7,69.4z"/>
	<path class="st0" d="M52.5,57.2h-8.6c0,0,0,0-0.1,0c-0.7,0-1.2,0.6-1.2,1.2s0.6,1.2,1.2,1.2h8.6l0,0c0.1,0,0.1,0,0.2,0
		c0.7,0,1.1-0.6,1.1-1.3C53.7,57.7,53.2,57.2,52.5,57.2z"/>
	<path class="st0" d="M56.6,46.6h-4.7c-2.3-3.7-6.3-6-10.7-6h-4.5v-4.8c3.3-1.8,5.8-4.9,6.8-8.7c1.9-0.5,3.2-2.3,3.3-4.3v-3.3
		c0-1.8-1.1-3.4-2.8-4.1V14C43.9,6.3,37.7,0.2,30.1,0.1C22.4,0,16,6.2,16,14v1.5c-1.7,0.7-2.8,2.3-2.8,4.1v3.3c0,2,1.3,3.7,3.3,4.3
		c1,3.9,3.7,7.1,7.2,8.9v4.5h-4.5c-6.9,0-12.5,5.6-12.6,12.5v6.4C2.9,60.3,0,62,0,64.5c0,3.6,5.9,5.5,11.4,5.5
		c5.5,0,11.4-1.9,11.4-5.5S16.9,59,11.4,59c-0.8,0-1.6,0-2.5,0.1v-6c0-5.3,4.1-9.7,9.3-10.1l5.4,9.4v27.1c0,1.9,1.5,3.4,3.4,3.4
		h29.6c1.9,0,3.4-1.5,3.4-3.4V50C60,48.2,58.5,46.6,56.6,46.6z M20.3,64.5c0,1.3-3.5,3.2-9,3.2s-9-1.9-9-3.2s3.5-3.2,9-3.2
		S20.3,63.3,20.3,64.5z M49,46.6H40l2.1-3.6C44.8,43.3,47.3,44.6,49,46.6z M30,2.4L30,2.4c6.4,0,11.6,5.2,11.6,11.6v1
		c-4.9-0.9-5.4-6.2-5.4-6.4l-0.3-3.4L34,8c-4.3,6.3-13,7-15.6,7.1V14C18.4,7.6,23.6,2.4,30,2.4z M18.6,25.9L18.4,25L17.5,25
		c-1.1-0.1-1.9-1-1.9-2.1v-3.3c0-1,0.8-1.9,1.8-2l0.5-0.1c0,0,0.1,0,0.1,0l0,0c2,0,10.9-0.3,16.4-6.2c1,3.3,3.8,5.6,7.2,6.1v0l1,0.1
		c1,0.1,1.8,1,1.8,2v3.3c0,1.1-0.9,2-1.9,2.1L41.5,25l-0.2,0.9c-0.9,4.6-4.5,8.2-9.1,9.1C25.9,36.3,19.8,32.2,18.6,25.9z M24.8,43
		C24.8,43,24.8,43,24.8,43c0.7,0,1.2-0.5,1.2-1.2V37c1.3,0.4,2.6,0.6,4,0.6v0c1.5,0,3-0.3,4.4-0.7v4.9c0,0,0,0,0,0
		c0,0.7,0.5,1.2,1.2,1.2h3.9l-2.1,3.7H27c-1.3,0-2.4,0.7-3,1.8L20.9,43H24.8z M57.6,79.6c0,0.6-0.5,1-1,1H27c-0.6,0-1-0.5-1-1V50
		c0-0.6,0.5-1,1-1h29.6c0.6,0,1,0.5,1,1V79.6z"/>
	<path class="st0" d="M51.1,73C51.1,73,51.1,73,51.1,73c-0.8,0-1.4,0.6-1.4,1.4s0.6,1.4,1.4,1.4s1.4-0.6,1.4-1.4l0,0
		C52.5,73.7,51.9,73,51.1,73z"/>
	<path class="st0" d="M45.4,70.1c0.8,0,1.4-0.6,1.4-1.4l0,0c0-0.8-0.6-1.4-1.4-1.4c0,0,0,0,0,0c-0.8,0-1.4,0.6-1.4,1.4
		S44.6,70.1,45.4,70.1z"/>
	<path class="st0" d="M39.1,57.2H36v-3.1c0-0.7-0.5-1.2-1.2-1.2c-0.7,0-1.2,0.5-1.2,1.2v3.1h-3.1c0,0,0,0-0.1,0
		c-0.7,0-1.2,0.6-1.2,1.2s0.6,1.2,1.2,1.2h3.1v3.1c0,0.7,0.5,1.2,1.2,1.2l0,0c0.7,0,1.2-0.5,1.2-1.2v-3.1h3.1l0,0c0.1,0,0.1,0,0.2,0
		c0.7,0,1.1-0.6,1.1-1.3C40.3,57.7,39.7,57.2,39.1,57.2z"/>
</g>
</svg>
