<svg xmlns="http://www.w3.org/2000/svg" width="35" height="42" viewBox="0 0 35 42">
    <path fill="#00AA3C" fill-rule="nonzero" d="M34.087 9.352l-3.075-4.576L34.087.2H21.37c-.313 0-.522.26-.522.572v17.94L17.304 14.5c-.73-.832-1.72-1.3-2.814-1.3h-.782v-.624c.834-.468 1.46-1.196 1.668-2.08.573-.156.938-.624.938-1.196v-.988c0-.52-.365-.988-.834-1.144-.052-1.872-1.72-3.38-3.753-3.38a4.069 4.069 0 0 0-2.71 1.04c0-.052-.052-.104-.104-.156-.886-.936-2.346-.884-2.554-.884-2.033 0-3.7 1.508-3.753 3.38-.469.156-.834.624-.834 1.144V9.3c0 .572.417 1.04.99 1.196.261.884.834 1.612 1.668 2.08v.624h-.782C1.616 13.2 0 14.708 0 16.58l.365 13h2.397V41.8h6.88c.053 0 .157 0 .209-.052h16.001c.313 0 .573-.26.573-.572a.578.578 0 0 0-.573-.572h-3.909V25.108l1.46 1.092 1.98-2.132-3.44-4.056V9.352h12.144zM11.727 4.88c1.46 0 2.658 1.04 2.658 2.34v1.04l.626-.052c.104 0 .208.052.208.104V9.3c0 .052-.104.104-.208.104l-.573-.104-.053.572c-.104.78-.677 1.456-1.459 1.82l-.313.156v2.444h1.929c.782 0 1.46.312 1.98.936l4.379 5.2v2.496l-3.076-2.288h-.052c-.052 0-.052-.052-.104-.052h-.104-.052-.157c-.052 0-.052 0-.104.052-.052 0-.052.052-.104.052s-.052.052-.104.052l-.052.052v.052c0 .052-.053.052-.053.104v.156l-.208 7.384h-2.45v12.168H9.33V28.488H6.776L6.41 16.58c0-1.248 1.147-2.236 2.502-2.236h1.928V11.9l-.313-.156c-.781-.364-1.355-1.04-1.459-1.82l-.052-.572-.573.104c-.105 0-.209-.052-.209-.104v-.988c0-.052.104-.104.209-.104l.625.104v-1.04c0-1.404 1.199-2.444 2.658-2.444zM1.46 28.488L1.095 16.58c0-1.248 1.146-2.236 2.501-2.236h1.929V11.9l-.313-.156c-.782-.364-1.355-1.04-1.46-1.82l-.051-.572-.574.104c-.104 0-.208-.052-.208-.104v-.988c0-.052.104-.104.208-.104l.626.104v-1.04c0-1.3 1.199-2.34 2.658-2.34h.052s1.095-.052 1.668.52c.052.104.156.104.26.156-.26.468-.416.988-.469 1.56-.469.156-.834.624-.834 1.144v.988c0 .572.417 1.04.99 1.196.261.884.835 1.612 1.669 2.08v.572h-.782c-2.033 0-3.649 1.508-3.649 3.38l.365 13H8.08v11.076h-4.17V28.488H1.46zm19.39 12.168h-5.525V29.58h2.397l.209-7.384 2.866 2.132v16.328h.052zm3.023-16.588l-.626.676-1.303-.988v-2.028l1.929 2.34zm5.837-19.292l2.293 3.484H21.943V1.344h10.06l-2.294 3.432z"/>
</svg>
