<svg xmlns="http://www.w3.org/2000/svg" width="29" height="40" viewBox="0 0 29 40">
    <path fill="#00AA3C" fill-rule="nonzero" d="M28.834 35.208c0-.05.052-.1.052-.151v-17.28c0-1.364-1.132-2.425-2.469-2.425H19.99c.462-.708.822-1.466 1.028-2.325.926-.1 1.646-.91 1.646-1.87v-1.97c0-.91-.669-1.667-1.543-1.819v-.252C21.171 3.629 18.24.8 14.743.8c-3.549 0-6.429 2.83-6.429 6.316v.252c-.874.152-1.543.91-1.543 1.87v1.97c0 .96.72 1.769 1.698 1.87a5.886 5.886 0 0 0 1.028 2.324H3.171c-1.388 0-2.468 1.112-2.468 2.425v17.28c0 .05 0 .101.051.152a1.768 1.768 0 0 0-.103.505v2.223c-.051.657.515 1.213 1.183 1.213h25.869c.668 0 1.234-.556 1.234-1.263v-2.223c0-.152-.051-.354-.103-.506zM9.446 7.116c0-2.88 2.365-5.204 5.297-5.204 2.931 0 5.297 2.324 5.297 5.204v.252c-1.851-.404-2.469-2.98-2.469-2.98l-.308-1.264-.72 1.061c0 .05-2.16 3.183-7.097 3.183v-.252zm-.052 4.699l-.617.1h-.154c-.412 0-.772-.353-.772-.757v-1.97c0-.405.309-.759.72-.759.052.051.155.051.258.102H9.394c3.909 0 6.275-1.82 7.355-2.88.462 1.06 1.44 2.627 3.24 2.88l.257-.051.411-.05h.103c.411 0 .771.353.771.757v1.97c0 .405-.36.759-.771.759h-.154l-.566-.101-.051.606c-.155 1.112-.618 2.122-1.44 2.93h-7.663a5.298 5.298 0 0 1-1.44-2.93l-.052-.606zm-7.56 5.962c0-.708.617-1.314 1.337-1.314h7.303c.052.05.155.05.206.05.051 0 .154 0 .206-.05h15.48c.72 0 1.337.606 1.337 1.314V34.5H1.834V17.777zm25.972 20.16c0 .05-.052.151-.103.151H1.834c-.051 0-.103-.05-.103-.151v-2.223c0-.05.052-.152.103-.152h25.869c.051 0 .103.05.103.152v2.223zM11.349 26.013h6.788a.566.566 0 0 0 .566-.556.566.566 0 0 0-.566-.556H11.35a.566.566 0 0 0-.566.556c0 .354.257.556.566.556z"/>
</svg>
