<svg xmlns="http://www.w3.org/2000/svg" width="35" height="42" viewBox="0 0 35 42">
    <path fill="#00AA3C" fill-rule="nonzero" d="M7.555.2v3.432a5.847 5.847 0 0 0-.945-.104c-2.05 0-3.73 1.664-3.783 3.692-.473.156-.84.676-.84 1.196v1.092c0 .572.42 1.092.945 1.248.263.988.893 1.768 1.681 2.288v.884h-.735C1.88 13.928.2 15.54.2 17.568V28.8h2.837l1.103 13h6.567l1.366-13.78.106-4.888h22.748V.2H7.555zm-3.572 9.932L3.93 9.56l-.578.104c-.105 0-.21-.052-.21-.156V8.416c0-.104.105-.208.21-.156l.63.104V7.272c0-1.456 1.209-2.6 2.628-2.6 1.47 0 2.626 1.196 2.626 2.6v1.04l.63-.052h.053c.105 0 .158.104.158.156v1.092c0 .104-.105.208-.21.156l-.578-.104-.053.572c-.157 1.3-1.313 2.288-2.626 2.288-1.314.052-2.47-.936-2.627-2.288zm7.145 10.764l-.158 7.02-1.313 12.792H5.19L4.088 27.656H1.303v-10.14c0-1.404 1.156-2.496 2.522-2.496H5.77v-1.56c.263.052.525.104.84.104.263 0 .578-.052.841-.104v1.56h13.607c1.314 0 2.417.936 2.68 2.132H14.91c-2.049 0-3.782 1.716-3.782 3.744zm22.696 1.092H12.23v-1.092c0-1.456 1.208-2.6 2.627-2.6h10.035v-.572c0-2.08-1.734-3.796-3.836-3.796H8.553v-.884c.841-.52 1.471-1.3 1.682-2.288.525-.156.945-.624.945-1.248V8.416c0-.572-.367-1.04-.84-1.196 0-1.3-.683-2.392-1.681-3.068v-2.86h25.165v20.696zM14.858 8.104H29.41a.58.58 0 0 0 .578-.572.58.58 0 0 0-.578-.572H14.858a.58.58 0 0 0-.578.572.58.58 0 0 0 .578.572zm0 3.016H29.41a.58.58 0 0 0 .578-.572.58.58 0 0 0-.578-.572H14.858a.58.58 0 0 0-.578.572c0 .364.263.572.578.572z"/>
</svg>
