<svg xmlns="http://www.w3.org/2000/svg" width="40" height="44" viewBox="0 0 40 44">
    <path fill="#00AA3C" fill-rule="nonzero" d="M39.047 18.88v-.518c0-2.536-2.036-4.555-4.48-4.555h-1.17v-1.242a4.818 4.818 0 0 0 2.188-3.003 1.549 1.549 0 0 0 1.171-1.5v-1.45c0-.673-.458-1.294-1.069-1.45v-.051C35.687 2.522 33.6.4 31.055.4c-2.546 0-4.633 2.122-4.633 4.71v.052c-.611.207-1.07.777-1.07 1.45v1.45c0 .724.51 1.345 1.172 1.5a4.818 4.818 0 0 0 2.189 3.003v1.242h-1.171c-2.495 0-4.48 2.07-4.48 4.555v3.572h-2.546v-2.433c0-2.588-2.087-4.71-4.632-4.71h-1.222v-1.76c1.069-.622 1.883-1.76 2.138-3.055.662-.103 1.17-.724 1.17-1.449V7.13c0-.673-.457-1.242-1.017-1.397v-.104c0-2.588-1.986-4.659-4.48-4.659-2.444 0-4.48 2.123-4.48 4.66v.103a1.44 1.44 0 0 0-1.07 1.397v1.45c0 .725.51 1.346 1.172 1.45a4.723 4.723 0 0 0 1.832 2.846c0 .052-.05.104-.05.156v1.76H8.654c-2.546 0-4.633 2.122-4.633 4.71v2.433H.56a.57.57 0 0 0 0 1.139h3.513v.052h16.443v-.052h2.546v7.299c0 .776.61 1.45 1.425 1.45h2.24V42.64c0 .725.611 1.346 1.324 1.346h6.109c.713 0 1.324-.621 1.324-1.346V31.821h2.189c.763 0 1.425-.621 1.425-1.45V19.088c-.05-.052-.05-.155-.05-.207zM15.935 5.628c-1.07-.31-1.477-2.019-1.477-2.019l-.203-1.138a3.736 3.736 0 0 1 1.68 3.157zm-6.975 0c0-2.019 1.578-3.675 3.513-3.675.662 0 1.222.207 1.73.518l-.61.983S12.167 5.68 8.96 5.732v-.104zm.05 3.83l-.05-.517-.51.104h-.1c-.255 0-.408-.207-.408-.466v-1.45c0-.207.153-.414.356-.414.051.052.102.052.204.052h.305l.153.052v-.052c2.545-.052 4.073-1.19 4.887-2.019.357.777.968 1.76 2.138 1.967v.052l.56-.103h.051c.255 0 .408.207.408.465v1.45c0 .259-.204.466-.408.466h-.05l-.51-.104-.05.518c-.204 1.812-1.68 3.21-3.462 3.21-1.833 0-3.31-1.398-3.513-3.21zm10.386 12.476H5.193v-2.433c0-1.967 1.578-3.52 3.462-3.52h2.341v-2.536c.459.155.917.259 1.426.259.356 0 .763-.052 1.069-.156v2.433h2.342c1.934 0 3.462 1.605 3.462 3.52v2.433h.101zm18.531 8.438c0 .155-.102.259-.254.259h-3.36v11.957c0 .104-.102.207-.204.207H28c-.102 0-.204-.103-.204-.207V30.631h-3.36c-.152 0-.254-.104-.254-.26V19.088v-.725c0-1.863 1.527-3.416 3.36-3.416h2.29V11.84l-.305-.155c-1.069-.518-1.782-1.553-1.934-2.796l-.102-.569-.611.104c-.204.051-.458-.156-.458-.363v-1.45a.35.35 0 0 1 .356-.362h.051l.662.104V5.11c0-1.967 1.578-3.572 3.513-3.572 1.934 0 3.512 1.605 3.512 3.572V6.3l.662-.103h.051a.35.35 0 0 1 .356.362v1.45a.35.35 0 0 1-.356.362h-.05l-.56-.052-.052.621a3.627 3.627 0 0 1-1.985 2.795l-.306.156v3.106h2.291c1.833 0 3.36 1.553 3.36 3.416v11.958zm-24.08-19.153a.515.515 0 0 0-.509-.518h-1.527a.514.514 0 0 0-.51.518c0 .259.204.517.51.517h1.527c.306 0 .51-.258.51-.517z"/>
</svg>
