<svg xmlns="http://www.w3.org/2000/svg" width="37" height="42" viewBox="0 0 37 42">
    <g fill="none" fill-rule="evenodd">
        <path fill="#00AA3C" fill-rule="nonzero" d="M28.997 26.928c-.405 0-.811.052-1.166.208-1.268-.78-2.84-.312-3.752.572-.66.676-3.347 3.588-4.107 4.368h-4.817v-.26h2.687c2.383 0 3.093-2.548 3.144-3.848a.853.853 0 0 0-.152-.468.636.636 0 0 0-.457-.208h-9.735c-3.093 0-3.904 1.508-4.817 3.12C4.963 31.972.755 40.5.552 40.864a.564.564 0 0 0 .05.624.556.556 0 0 0 .508.312h7.15a.659.659 0 0 0 .608-.416c1.267-4.004 2.586-4.004 4.005-4.004h9.583a.612.612 0 0 0 .457-.208l8.01-8.372c.204-.26.254-.624 0-.832-.506-.676-1.165-.988-1.926-1.04zm-4.056 1.664c.304-.312.963-.676 1.572-.624-.76.832-3.347 3.432-4.057 4.108h-.76c1.115-1.196 2.789-2.964 3.245-3.484zm-2.738 7.488h-9.33c-1.47 0-3.498 0-5.02 4.472h-5.73c1.116-2.288 4.057-8.216 4.767-9.464.862-1.56 1.37-2.444 3.752-2.444h9.026c-.153.78-.558 1.976-1.826 1.976h-3.296c-.354 0-.608.26-.608.624v1.508c0 .364.254.624.608.624h8.113a.568.568 0 0 0 .406-.156c.152-.156 3.752-3.692 4.411-4.368.101-.104.254-.208.406-.312.101 0 .152-.052.203-.104.253-.104.507-.156.81-.156.204 0 .457.052.61.156l-7.302 7.644zm13.284-12.272H34.22v-3.016c0-8.32-6.085-15.184-13.944-16.224.355-.468.507-1.04.507-1.612C20.783 1.448 19.566.2 18.096.2c-1.47 0-2.688 1.248-2.688 2.756 0 .624.203 1.196.558 1.664-7.707 1.144-13.69 7.956-13.69 16.224v3.016H1.008c-.354-.052-.608.26-.608.624s.254.624.608.624h34.48c.354 0 .608-.26.608-.624s-.304-.676-.609-.676zM18.096 1.448c.811 0 1.47.676 1.47 1.508s-.659 1.508-1.47 1.508c-.811 0-1.47-.676-1.47-1.508s.659-1.508 1.47-1.508zm14.907 22.36H3.493v-3.016c0-8.32 6.592-15.132 14.755-15.132s14.755 6.76 14.755 15.132v3.016zM12.772 8.78c-2.789 1.352-5.02 3.64-6.338 6.5-.152.312 0 .676.304.832a.447.447 0 0 0 .254.052.623.623 0 0 0 .557-.364c1.166-2.6 3.195-4.68 5.73-5.876.304-.156.456-.52.304-.832-.152-.312-.507-.468-.811-.312z"/>
    </g>
</svg>
