<?xml version="1.0" encoding="utf-8"?>
<!-- Generator: Adobe Illustrator 22.1.0, SVG Export Plug-In . SVG Version: 6.00 Build 0)  -->
<svg version="1.1" id="Lager_1" xmlns="http://www.w3.org/2000/svg" xmlns:xlink="http://www.w3.org/1999/xlink" x="0px" y="0px"
	 width="67px" height="73px" viewBox="0 0 67 73" style="enable-background:new 0 0 67 73;" xml:space="preserve">
<style type="text/css">
	.st0{fill:#00AA3C;}
</style>
<path class="st0" d="M66.5,41.2c0,0-0.1-0.1-0.1-0.1L50.7,30.6V12.1c0-0.4-0.2-0.7-0.5-0.9c0,0-0.1-0.1-0.1-0.1L33.7,0.2
	c-0.4-0.3-0.9-0.3-1.3,0L16.6,11.1c0,0,0,0,0,0c-0.1,0.1-0.2,0.1-0.2,0.2c0,0,0,0,0,0c0,0,0,0,0,0c-0.1,0.1-0.1,0.2-0.2,0.4
	c0,0,0,0.1,0,0.1c0,0.1,0,0.1,0,0.2v18.1L0.5,41c0,0,0,0,0,0c-0.1,0.1-0.2,0.1-0.2,0.2c0,0,0,0,0,0c0,0,0,0,0,0
	c-0.1,0.1-0.1,0.2-0.2,0.4c0,0,0,0.1,0,0.1c0,0.1,0,0.1,0,0.2v18.9c0,0.4,0.2,0.8,0.5,1l16.1,10.8c0.2,0.1,0.4,0.2,0.7,0.2l0,0
	c0,0,0,0,0,0c0,0,0,0,0,0l0,0c0.1,0,0.1,0,0.2,0c0,0,0,0,0,0c0.2,0,0.3-0.1,0.4-0.2l15.4-10.3L49,72.8c0.2,0.1,0.4,0.2,0.7,0.2l0,0
	c0,0,0,0,0,0c0,0,0,0,0,0l0,0c0.2,0,0.5-0.1,0.7-0.2L66.5,62c0.3-0.2,0.5-0.6,0.5-1V42.1C67,41.8,66.8,41.4,66.5,41.2z M60.6,44.2
	l-2,1.3l-14.3-9.5l5-3.5l14.3,9.5L60.6,44.2z M26.3,45.4L12,35.9l5-3.5l14.3,9.5L28,44.2L26.3,45.4z M18.4,30.4V14.3l13.7,9.2v16.1
	L18.4,30.4L18.4,30.4z M35.7,42.1l6-4.1l14.2,9.4l-6.1,4.1L35.7,42.1z M48.3,14.3v16.1l-13.7,9.2V23.8l5.6-3.9v4.6l3.1-2.1l0,0v-4.6
	l1.9-1.3L48.3,14.3z M33,2.6l14.3,9.5l-3.2,2.2l-1.8,1.2L28,6.1L33,2.6z M25.3,7.9l14.2,9.4l-6.1,4.1l-14.1-9.4L25.3,7.9z M9.3,37.8
	l14.2,9.4l-6.1,4.1L3.3,41.9L9.3,37.8z M16.1,69.4L2.4,60.2V44.2l13.7,9.2V69.4z M32.3,60.2l-13.7,9.2V53.6l5.6-3.9v4.6l3.1-2.1l0,0
	v-4.6l1.9-1.3l3.2-2.1V60.2z M48.5,69.6l-13.7-9.2V44.3l13.7,9.2V69.6z M64.7,60.4l-13.7,9.2V53.8l5.6-3.9v4.6l3.1-2.1v-4.6l1.9-1.3
	l3.2-2.1V60.4z"/>
</svg>
