<svg xmlns="http://www.w3.org/2000/svg" width="25" height="38" viewBox="0 0 25 38">
    <g fill="#00AA3C" fill-rule="nonzero">
        <path d="M24.542 37.942L0 37.891v-9.477c0-3.812 3.1-6.902 6.923-6.902h1.964v-2.988h1.291V22.8H6.923c-3.1 0-5.631 2.524-5.631 5.615v8.138l21.958.103v-8.19c0-3.09-2.48-5.563-5.58-5.614h-3.203v-4.275h1.291v3.039h1.912c3.772.051 6.872 3.142 6.872 6.902v9.425z"/>
        <path d="M12.297 31.35l-5.529-8.654 1.085-.67 4.495 7.006 4.805-7.16 1.085.721z"/>
        <path d="M16.275 37.273h-1.292v-7.314a.462.462 0 0 0-.465-.464h-4.391a.462.462 0 0 0-.465.464v7.314H8.37v-7.314a1.74 1.74 0 0 1 1.757-1.751h4.391a1.74 1.74 0 0 1 1.757 1.75v7.315z"/>
        <path d="M13.175 31.659h-1.757a.627.627 0 0 1-.62-.618c0-.31.31-.619.62-.619h1.757c.362 0 .62.31.62.619s-.31.618-.62.618zM12.555 20.018c-3.307 0-6.148-2.215-7.027-5.357-1.033-.257-1.808-1.493-1.808-2.575v-2.06c0-.979.62-2.112 1.55-2.473C5.425 3.69 8.628.6 12.555.6c3.875 0 7.078 3.09 7.233 6.902.879.412 1.55 1.494 1.55 2.472v2.06c0 1.082-.775 2.318-1.756 2.576-.879 3.193-3.772 5.408-7.027 5.408zm-5.993-6.644l.103.566c.568 2.782 3.048 4.79 5.89 4.79 2.842 0 5.322-2.008 5.89-4.79l.103-.566.672.051c.362 0 .878-.72.878-1.339v-2.06c0-.567-.516-1.34-.878-1.34h-.62v-.772c0-3.296-2.687-5.975-5.993-5.975-3.307 0-5.994 2.679-5.994 5.975v.824h-.62c-.413 0-.93.773-.93 1.34v2.06c0 .618.517 1.339.93 1.339h.104l.465-.103z"/>
        <path d="M6.665 8.687c-.465 0-.775-.052-.827-.052l.155-1.288c.052 0 5.27.464 8.009-3.348l.878-1.236.258 1.494c.569 3.039 3.875 3.09 4.03 3.09v1.288h-.051c-1.344 0-3.875-.618-4.909-2.936-2.48 2.679-5.993 2.988-7.543 2.988zM13.795 16.928h-2.583a.627.627 0 0 1-.62-.618c0-.31.31-.618.62-.618h2.583c.362 0 .62.309.62.618a.627.627 0 0 1-.62.618z"/>
    </g>
</svg>
