<?xml version="1.0" encoding="UTF-8"?>
<svg width="18px" height="18px" viewBox="0 0 18 18" version="1.1" xmlns="http://www.w3.org/2000/svg" xmlns:xlink="http://www.w3.org/1999/xlink">
    <!-- Generator: sketchtool 48.2 (47327) - http://www.bohemiancoding.com/sketch -->
    <title>335734D8-CE2D-430D-BFCB-E3BB96C09D9E</title>
    <desc>Created with sketchtool.</desc>
    <defs></defs>
    <g id="Notifications" stroke="none" stroke-width="1" fill="none" fill-rule="evenodd" transform="translate(-989.000000, -132.000000)">
        <g id="Group-7" transform="translate(360.000000, 132.000000)" fill="#000000" fill-rule="nonzero">
            <g id="Group-6" transform="translate(629.000000, 0.000000)">
                <g id="trash-copy">
                    <path d="M16.5306462,2.1672 L14.3634462,2.1672 L12.0284308,2.1672 L12.0284308,0.5544 C12.0284308,0.248123077 11.7800308,0 11.4740308,0 L5.6952,0 C5.38892308,0 5.1408,0.248123077 5.1408,0.5544 L5.1408,2.1672 L2.80578462,2.1672 L0.638584615,2.1672 C0.332307692,2.1672 0.0841846154,2.41532308 0.0841846154,2.7216 C0.0841846154,3.02787692 0.332307692,3.276 0.638584615,3.276 L2.25138462,3.276 L2.25138462,17.1689538 C2.25138462,17.4752308 2.49950769,17.7233538 2.80578462,17.7233538 L14.3634462,17.7233538 C14.6697231,17.7233538 14.9178462,17.4752308 14.9178462,17.1689538 L14.9178462,3.27572308 L16.5306462,3.27572308 C16.8369231,3.27572308 17.0850462,3.0276 17.0850462,2.72132308 C17.0850462,2.41504615 16.8366462,2.1672 16.5306462,2.1672 Z M6.2496,1.1088 L10.9196308,1.1088 L10.9196308,2.1672 L6.2496,2.1672 L6.2496,1.1088 Z M13.8090462,16.6142769 L3.36018462,16.6142769 L3.36018462,3.27572308 L5.6952,3.27572308 L11.4740308,3.27572308 L13.8090462,3.27572308 L13.8090462,16.6142769 Z" id="Shape"></path>
                    <path d="M5.6952,4.69550769 C5.38892308,4.69550769 5.1408,4.94363077 5.1408,5.24990769 L5.1408,13.9181538 C5.1408,14.2244308 5.38892308,14.4725538 5.6952,14.4725538 C6.00147692,14.4725538 6.2496,14.2244308 6.2496,13.9181538 L6.2496,5.24963077 C6.2496,4.94363077 6.0012,4.69550769 5.6952,4.69550769 Z" id="Shape"></path>
                    <path d="M8.58461538,4.69550769 C8.27833846,4.69550769 8.03021538,4.94363077 8.03021538,5.24990769 L8.03021538,13.9181538 C8.03021538,14.2244308 8.27833846,14.4725538 8.58461538,14.4725538 C8.89089231,14.4725538 9.13901538,14.2244308 9.13901538,13.9181538 L9.13901538,5.24963077 C9.13901538,4.94363077 8.89061538,4.69550769 8.58461538,4.69550769 Z" id="Shape"></path>
                    <path d="M10.9196308,5.24963077 L10.9196308,13.9181538 C10.9196308,14.2244308 11.1677538,14.4725538 11.4740308,14.4725538 C11.7803077,14.4725538 12.0284308,14.2244308 12.0284308,13.9181538 L12.0284308,5.24963077 C12.0284308,4.94335385 11.7803077,4.69523077 11.4740308,4.69523077 C11.1677538,4.69523077 10.9196308,4.94363077 10.9196308,5.24963077 Z" id="Shape"></path>
                </g>
            </g>
        </g>
    </g>
</svg>