<?xml version="1.0" encoding="utf-8"?>
<!-- Generator: Adobe Illustrator 21.1.0, SVG Export Plug-In . SVG Version: 6.00 Build 0)  -->
<svg version="1.1" id="Layer_1" xmlns="http://www.w3.org/2000/svg" xmlns:xlink="http://www.w3.org/1999/xlink" x="0px" y="0px"
	 viewBox="0 0 64.1 44.1" style="enable-background:new 0 0 64.1 44.1;" xml:space="preserve">
<style type="text/css">
	.st0{fill-rule:evenodd;clip-rule:evenodd;}
</style>
<g>
	<g>
		<path d="M32.3,10.1c-6.6,0-12,5.4-12,12c0,6.6,5.4,12,12,12c6.6,0,12-5.4,12-12C44.3,15.5,38.9,10.1,32.3,10.1z M32.3,30.1
			c-4.4,0-8.1-3.7-8.1-8.1c0-4.4,3.6-8,8-8c4.4,0,8,3.6,8,8C40.2,26.4,36.7,30.1,32.3,30.1z M64,21.6c0-0.1,0-0.2,0-0.3
			c0,0,0-0.1-0.1-0.1c0-0.1,0-0.1,0-0.2C58.1,7.7,45.5,0,32.2,0C18.8,0,6,7.7,0.2,21c0,0.1,0,0.1,0,0.2c0,0,0,0.1-0.1,0.1
			c0,0.1,0,0.2,0,0.3C0,21.7,0,21.9,0,22.1c0,0.2,0,0.4,0.1,0.5c0,0.1,0,0.2,0,0.3c0,0,0,0.1,0.1,0.1c0,0.1,0,0.1,0,0.2
			C6,36.5,18.7,44.1,32,44.1c13.4,0,26-7.5,31.8-20.8c0-0.1,0-0.1,0-0.2c0,0,0-0.1,0.1-0.1c0-0.1,0-0.2,0-0.3c0-0.2,0.1-0.4,0.1-0.5
			C64.1,21.9,64.1,21.8,64,21.6z M32,40.1c-11.3,0-22.5-6-28-18C9.5,10.1,20.8,4,32.2,4C43.5,4,54.6,10.1,60,22.1
			C54.6,34.1,43.4,40.1,32,40.1z"/>
	</g>
</g>
</svg>
