<svg xmlns="http://www.w3.org/2000/svg" width="49" height="46" viewBox="0 0 49 46">
    <path fill="#00AA3C" fill-rule="nonzero" d="M47.1 0c-.687 0-1.238.55-1.238 1.238 0 9.145-2.956 16.502-8.732 21.934C27.091 32.592 10.864 33.76 4.332 33.83l7.7-7.633a1.287 1.287 0 0 0 0-1.787 1.287 1.287 0 0 0-1.787 0L.481 34.105l-.068.068-.138.138s0 .069-.069.069c0 .068-.068.068-.068.137 0 0 0 .069-.07.069 0 .069 0 .069-.068.137V35.411c0 .069 0 .069.069.138 0 .068 0 .068.069.137 0 .069.068.069.068.138l.069.068.069.07 9.764 9.694c.275.275.55.344.893.344.344 0 .62-.138.894-.344a1.287 1.287 0 0 0 0-1.788l-7.563-7.494c2.475 0 6.12-.207 10.383-.894 7.15-1.1 16.983-3.782 24.134-10.452 6.326-5.913 9.489-13.889 9.489-23.79C48.338.55 47.788 0 47.1 0z"/>
</svg>
