<svg xmlns="http://www.w3.org/2000/svg" width="323" height="660" viewBox="0 0 323 660">
    <g fill="none" fill-rule="evenodd">
        <path fill="#FFF" d="M2.253 249.587H5.12v364.567c0 23.814 19.062 43.19 42.493 43.19h230.559c23.429 0 42.49-19.376 42.49-43.19V45.482c0-23.816-19.061-43.192-42.49-43.192H47.612C24.182 2.29 5.12 21.666 5.12 45.482v38.217H2.253v25.74H5.12v30.359H2.253v49.336H5.12v10.965H2.253v49.488z"/>
        <path fill="#B8B8B7" fill-opacity=".5" d="M112.132 37.68c-2.43 0-4.408 2.009-4.408 4.48 0 2.469 1.979 4.477 4.408 4.477 2.43 0 4.41-2.008 4.41-4.477 0-2.471-1.98-4.48-4.41-4.48zm0 11.248c-3.673 0-6.66-3.037-6.66-6.768 0-3.733 2.987-6.77 6.66-6.77 3.675 0 6.662 3.037 6.662 6.77 0 3.73-2.987 6.768-6.662 6.768zM139 39.675c-.988 0-1.795.818-1.795 1.826 0 1.007.807 1.827 1.796 1.827h46.634c.994 0 1.8-.82 1.8-1.827 0-1.008-.806-1.826-1.8-1.826h-46.634zm46.635 5.943h-46.634c-2.233 0-4.05-1.848-4.05-4.117 0-2.27 1.817-4.116 4.05-4.116h46.634c2.235 0 4.054 1.846 4.054 4.116 0 2.27-1.819 4.117-4.054 4.117zM162.406 591.769c-12.784 0-23.185 10.574-23.185 23.571 0 12.992 10.4 23.562 23.185 23.562 12.785 0 23.186-10.57 23.186-23.562 0-12.997-10.401-23.571-23.186-23.571m0 49.423c-14.028 0-25.438-11.598-25.438-25.852 0-14.261 11.41-25.861 25.438-25.861 14.029 0 25.439 11.6 25.439 25.861 0 14.254-11.41 25.852-25.439 25.852M15 577h294V73H15v504zm2-2h290.075L307 75H17v500z"/>
        <path fill="#B8B8B7" fill-opacity=".5" d="M2.253 249.587H5.12v364.567c0 23.814 19.062 43.19 42.493 43.19h230.559c23.429 0 42.49-19.376 42.49-43.19V45.482c0-23.816-19.061-43.192-42.49-43.192H47.612C24.182 2.29 5.12 21.666 5.12 45.482v38.217H2.253v25.74H5.12v30.359H2.253v49.336H5.12v10.965H2.253v49.488zm275.918 410.047H47.612c-24.672 0-44.746-20.402-44.746-45.48V251.877H0v-54.068h2.866v-6.385H0v-53.916h2.866v-25.78H0v-30.32h2.866V45.482C2.866 20.404 22.94 0 47.612 0h230.559c24.672 0 44.744 20.404 44.744 45.482v568.672c0 25.078-20.072 45.48-44.744 45.48z"/>
    </g>
</svg>
