<svg xmlns="http://www.w3.org/2000/svg" width="88" height="88" viewBox="0 0 88 88">
    <g fill="none" fill-rule="evenodd">
        <circle cx="44" cy="44" r="44" fill="#54666F"/>
        <g fill="#FFF" fill-rule="nonzero">
            <path d="M59.677 66.678L29 66.614V54.767c0-4.764 3.875-8.627 8.654-8.627h2.454v-3.735h1.615v5.344h-4.069c-3.875 0-7.04 3.155-7.04 7.018V64.94l27.448.128V54.832c0-3.864-3.1-6.954-6.974-7.018h-4.005V42.47h1.615v3.798h2.39c4.714.065 8.59 3.928 8.59 8.628v11.782z"/>
            <path d="M44.37 58.437l-6.91-10.816 1.357-.837 5.618 8.756 6.007-8.95 1.356.902z"/>
            <path d="M49.344 65.841h-1.615V56.7a.578.578 0 0 0-.581-.58h-5.49a.578.578 0 0 0-.58.58v9.142h-1.616V56.7c0-1.224.97-2.19 2.196-2.19h5.49c1.227 0 2.196.966 2.196 2.19v9.142z"/>
            <path d="M45.469 58.823h-2.196a.784.784 0 0 1-.775-.772c0-.387.387-.773.775-.773h2.196c.452 0 .775.386.775.773 0 .386-.388.772-.775.772zM44.694 44.273c-4.134 0-7.686-2.769-8.784-6.696-1.291-.322-2.26-1.867-2.26-3.22v-2.575c0-1.223.775-2.64 1.938-3.09C35.78 23.863 39.785 20 44.694 20c4.844 0 8.848 3.863 9.041 8.627 1.098.515 1.938 1.868 1.938 3.09v2.576c0 1.352-.969 2.897-2.196 3.22-1.098 3.991-4.714 6.76-8.783 6.76zm-7.492-8.306l.13.708c.71 3.477 3.81 5.988 7.362 5.988s6.652-2.51 7.362-5.988l.13-.708.839.065c.452 0 1.098-.902 1.098-1.674v-2.576c0-.708-.646-1.674-1.098-1.674h-.775v-.966c0-4.12-3.358-7.468-7.492-7.468-4.133 0-7.491 3.348-7.491 7.468v1.03h-.775c-.517 0-1.163.966-1.163 1.675v2.575c0 .773.646 1.674 1.163 1.674h.129l.581-.129z"/>
            <path d="M37.331 30.108c-.581 0-.969-.064-1.033-.064l.194-1.61c.064 0 6.587.58 10.01-4.185l1.098-1.545.323 1.867c.71 3.799 4.844 3.863 5.037 3.863v1.61h-.064c-1.68 0-4.844-.773-6.136-3.67-3.1 3.348-7.491 3.734-9.429 3.734zM46.244 40.41h-3.23a.784.784 0 0 1-.774-.773c0-.386.387-.773.775-.773h3.229c.452 0 .775.387.775.773a.784.784 0 0 1-.775.773z"/>
        </g>
    </g>
</svg>
