<svg id="Host" xmlns="http://www.w3.org/2000/svg" width="140" height="140" viewBox="0 0 140 140">
  <metadata><?xpacket begin="﻿" id="W5M0MpCehiHzreSzNTczkc9d"?>
<x:xmpmeta xmlns:x="adobe:ns:meta/" x:xmptk="Adobe XMP Core 5.6-c140 79.160451, 2017/05/06-01:08:21        ">
   <rdf:RDF xmlns:rdf="http://www.w3.org/1999/02/22-rdf-syntax-ns#">
      <rdf:Description rdf:about=""/>
   </rdf:RDF>
</x:xmpmeta>
                                                                                                    
                                                                                                    
                                                                                                    
                                                                                                    
                                                                                                    
                                                                                                    
                                                                                                    
                                                                                                    
                                                                                                    
                                                                                                    
                                                                                                    
                                                                                                    
                                                                                                    
                                                                                                    
                                                                                                    
                                                                                                    
                                                                                                    
                                                                                                    
                                                                                                    
                                                                                                    
                           
<?xpacket end="w"?></metadata>
<defs>
    <style>
      .cls-1 {
        fill: #54666f;
      }

      .cls-2 {
        fill: #fff;
        fill-rule: evenodd;
      }
    </style>
  </defs>
  <circle id="Ellipse_2_copy_10" data-name="Ellipse 2 copy 10" class="cls-1" cx="70" cy="70" r="70"/>
  <path id="Form_1" data-name="Form 1" class="cls-2" d="M900.368,865.292c-5.414,0-9.847-1.663-11.034-4.14a1.188,1.188,0,0,1,2.144-1.023c0.657,1.372,4.162,2.792,8.89,2.792,4.583,0,8.1-1.383,8.853-2.719a1.188,1.188,0,0,1,2.072,1.163C909.969,863.714,905.579,865.292,900.368,865.292Zm0,4.313c-5.414,0-9.847-1.663-11.034-4.14a1.188,1.188,0,0,1,2.144-1.023c0.657,1.372,4.162,2.792,8.89,2.792,4.583,0,8.1-1.382,8.853-2.719a1.188,1.188,0,0,1,2.072,1.163C909.969,868.027,905.579,869.605,900.368,869.605Zm0,4.313c-5.414,0-9.847-1.663-11.034-4.14a1.188,1.188,0,0,1,2.144-1.023c0.657,1.372,4.162,2.792,8.89,2.792,4.583,0,8.1-1.382,8.853-2.719a1.188,1.188,0,0,1,2.072,1.163C909.969,872.34,905.579,873.918,900.368,873.918Zm0-12.85c-5.5,0-11.357-1.937-11.357-5.527s5.852-5.528,11.357-5.528,11.357,1.937,11.357,5.528S905.874,861.068,900.368,861.068Zm0-8.683c-5.482,0-8.981,1.869-8.981,3.156s3.5,3.155,8.981,3.155,8.981-1.869,8.981-3.155S905.85,852.385,900.368,852.385ZM945.6,874H915.988a3.414,3.414,0,0,1-3.413-3.408V841.041a3.414,3.414,0,0,1,3.413-3.407H945.6a3.414,3.414,0,0,1,3.413,3.407v29.551A3.414,3.414,0,0,1,945.6,874Zm-29.608-33.994a1.037,1.037,0,0,0-1.037,1.035v29.551a1.038,1.038,0,0,0,1.037,1.036H945.6a1.038,1.038,0,0,0,1.037-1.036V841.041a1.037,1.037,0,0,0-1.037-1.035H915.988Zm12.071,10.6h-8.568a1.186,1.186,0,1,1,0-2.371h8.568A1.186,1.186,0,1,1,928.059,850.6Zm13.454,0h-8.568a1.186,1.186,0,1,1,0-2.371h8.568A1.186,1.186,0,1,1,941.513,850.6Zm-17.737,4.276a1.187,1.187,0,0,1-1.188-1.185v-8.552a1.188,1.188,0,0,1,2.376,0v8.552A1.187,1.187,0,0,1,923.776,854.878Zm11.953,4.839a1.384,1.384,0,1,1-1.384-1.38A1.383,1.383,0,0,1,935.729,859.717Zm5.752,5.706a1.383,1.383,0,1,1-1.383-1.381A1.381,1.381,0,0,1,941.481,865.423Zm-14.676,1.387a1.183,1.183,0,0,1-.84-0.348l-6.058-6.046a1.187,1.187,0,0,1,1.68-1.676l6.058,6.046A1.186,1.186,0,0,1,926.805,866.81Zm-6.058,0a1.186,1.186,0,0,1-.84-2.024l6.058-6.046a1.187,1.187,0,1,1,1.68,1.676l-6.058,6.046A1.183,1.183,0,0,1,920.747,866.81Zm13.487,0a1.186,1.186,0,0,1-.84-2.024l6.058-6.046a1.186,1.186,0,1,1,1.679,1.676l-6.058,6.046A1.182,1.182,0,0,1,934.234,866.81Zm-20.468-22.475a1.189,1.189,0,0,1-1.034-.6l-5.806-10.163a1.188,1.188,0,0,1,2.066-1.175L914.8,842.56A1.188,1.188,0,0,1,913.766,844.335Zm13.3-4.462a1.187,1.187,0,0,1-1.032-1.774l3.184-5.577a1.188,1.188,0,0,1,2.066,1.175l-3.185,5.577A1.19,1.19,0,0,1,927.065,839.873Zm-30.348,12.355a1.187,1.187,0,0,1-1.188-1.186v-6.9a12.563,12.563,0,0,1,12.562-12.537h4.49v-4.955a1.188,1.188,0,0,1,2.376,0v6.141a1.186,1.186,0,0,1-1.188,1.185h-5.678a10.188,10.188,0,0,0-10.186,10.166v6.9A1.186,1.186,0,0,1,896.717,852.228ZM940.128,839.8a1.186,1.186,0,0,1-1.037-.605,10.228,10.228,0,0,0-8.889-5.22h-5.667a1.186,1.186,0,0,1-1.188-1.185v-6.141a1.188,1.188,0,0,1,2.376,0v4.955H930.2a12.607,12.607,0,0,1,10.961,6.429A1.187,1.187,0,0,1,940.128,839.8Zm-21.172-11.185a14.019,14.019,0,0,1-13.53-10.452,4.461,4.461,0,0,1-3.256-4.272v-3.31a4.474,4.474,0,0,1,2.8-4.118v-1.509a13.984,13.984,0,0,1,27.967,0v1.509a4.472,4.472,0,0,1,2.8,4.118v3.31a4.461,4.461,0,0,1-3.255,4.272A14.02,14.02,0,0,1,918.956,828.618Zm0-35.246a11.61,11.61,0,0,0-11.608,11.585v3.431l-1.015.149a2.09,2.09,0,0,0-1.787,2.047v3.31a2.083,2.083,0,0,0,1.944,2.061l0.907,0.063,0.177,0.889a11.605,11.605,0,0,0,22.764,0l0.178-.889,0.906-.063a2.083,2.083,0,0,0,1.943-2.061v-3.31a2.09,2.09,0,0,0-1.787-2.047l-1.015-.149v-3.431A11.61,11.61,0,0,0,918.956,793.372Zm3.19,29.45h-5.064a1.186,1.186,0,1,1,0-2.372h5.064A1.186,1.186,0,1,1,922.146,822.822Zm-15.215-14.356c-0.214,0-.35,0-0.4,0l0.081-2.371c0.112,0,11.339.285,16.37-7.091l1.906-2.8,0.261,3.372c0.02,0.237.554,5.883,5.887,6.481l-0.266,2.357a8.765,8.765,0,0,1-7.423-6.105C917.793,808.124,908.935,808.466,906.931,808.466Z" transform="translate(-849 -766)"/>
</svg>
