<svg xmlns="http://www.w3.org/2000/svg" width="88" height="88" viewBox="0 0 88 88">
    <g fill="none" fill-rule="evenodd">
        <circle cx="44" cy="44" r="44" fill="#587E4A"/>
        <path fill="#FFF" fill-rule="nonzero" d="M45.733 29.845a.717.717 0 0 0-.706-.715h-2.183a.717.717 0 0 0-.706.715c0 .39.321.715.706.715h2.183c.45 0 .706-.325.706-.715zM65.506 61.63h-.834v-.975a4.654 4.654 0 0 0 1.926-2.6c.642-.195 1.09-.78 1.09-1.43V55.39c0-.65-.384-1.17-.962-1.43-.064-2.34-1.926-4.225-4.237-4.225-.514 0-1.027.13-1.477.26-.064-.065-.064-.13-.128-.195l-6.163-6.045v-3.25c0-3.38-2.696-6.11-6.035-6.11H46.89V32.38a6.345 6.345 0 0 0 3.017-4.095c.899-.195 1.605-.975 1.605-1.95v-1.95c0-.91-.642-1.69-1.476-1.885v-.195c0-3.51-2.825-6.305-6.228-6.305-3.466 0-6.227 2.86-6.227 6.305v.13c-.834.195-1.476.975-1.476 1.95v1.95c0 .975.706 1.82 1.605 1.95.385 1.755 1.476 3.25 3.017 4.095v2.08h-1.67c-3.337 0-6.034 2.73-6.034 6.11v2.535l-6.034 7.02c-.514-.26-1.156-.39-1.798-.39-2.311 0-4.237 1.885-4.237 4.225-.578.195-.963.78-.963 1.43v1.235c0 .715.45 1.3 1.091 1.43.257 1.105.963 2.015 1.862 2.6v.975h-.834c-2.311 0-4.109 1.885-4.109 4.16V68h14.444v-2.21c0-2.34-1.861-4.16-4.108-4.16H27.5v-.975a4.654 4.654 0 0 0 1.926-2.6c.642-.195 1.092-.78 1.092-1.43V55.39c0-.65-.386-1.17-.963-1.43 0-1.17-.514-2.275-1.349-3.055l5.586-6.565h9.437v5.46c-1.99.325-3.531 2.08-3.595 4.16-.578.195-.963.78-.963 1.43v1.235c0 .715.449 1.3 1.091 1.43.257 1.105.963 2.015 1.862 2.6v.975h-.835c-2.311 0-4.109 1.885-4.109 4.16V68h14.445v-2.21c0-2.34-1.862-4.16-4.109-4.16h-.834v-.975a4.654 4.654 0 0 0 1.926-2.6c.642-.195 1.091-.78 1.091-1.43V55.39c0-.65-.385-1.17-.963-1.43-.064-2.08-1.605-3.835-3.595-4.16v-5.46h8.667l6.42 6.37c-.964.78-1.541 1.95-1.606 3.25-.577.195-.963.78-.963 1.43v1.235c0 .715.45 1.3 1.092 1.43.257 1.105.963 2.015 1.862 2.6v.975h-.835c-2.311 0-4.109 1.885-4.109 4.16V68h14.445v-2.21c0-2.275-1.862-4.16-4.109-4.16zm-37.234 1.365c1.54 0 2.76 1.235 2.76 2.795v.845H19.348v-.845c0-1.56 1.22-2.795 2.76-2.795h2.183V61.24c.257.065.578.13.9.13.32 0 .577-.065.898-.13v1.755h2.183zm.642-7.735c.064 0 .192.065.192.13v1.235c0 .065-.064.13-.192.13l-.707-.13-.064.715c-.192 1.495-1.412 2.6-2.889 2.6-1.476 0-2.696-1.105-2.889-2.6l-.064-.715-.706.13c-.064 0-.193-.065-.193-.13V55.39c0-.065.065-.13.193-.13l.77.13v-1.3c0-1.625 1.284-2.925 2.89-2.925 1.604 0 2.888 1.3 2.888 2.925v1.3l.77-.13zm19.772-32.955v.065c-1.476-.455-2.054-2.73-2.054-2.795l-.32-1.56c1.411.91 2.374 2.47 2.374 4.29zm-9.758 0c0-2.73 2.183-4.94 4.88-4.94.898 0 1.733.26 2.439.65l-.835 1.365s-1.99 2.99-6.484 3.055v-.13zm.065 5.2l-.065-.715-.706.13h-.128a.579.579 0 0 1-.578-.585v-1.95c0-.325.257-.585.514-.585.064.065.192.065.256.065h.45l.257.065v-.065c3.53-.065 5.713-1.625 6.805-2.73.449 1.04 1.348 2.405 2.953 2.665v.065l.77-.13h.064c.321 0 .578.26.578.585v1.95a.579.579 0 0 1-.578.585h-.128l-.706-.13-.065.715c-.32 2.47-2.375 4.355-4.879 4.355-2.44.065-4.558-1.82-4.814-4.29zm3.081 8.32v-2.86c.578.195 1.156.26 1.733.26.578 0 1.156-.065 1.734-.26v2.86h1.54L43.807 40.7l-3.274-4.875h1.541zm-7.64 7.15c0-.065-.064-.13-.064-.195v-2.275c0-2.6 2.055-4.68 4.558-4.745 0 0 0 .065.065.065l4.75 7.085h-9.308v.065zm12.455 20.02c1.54 0 2.76 1.235 2.76 2.795v.845H37.965v-.845c0-1.56 1.22-2.795 2.76-2.795h2.184V61.24c.256.065.577.13.898.13.321 0 .578-.065.9-.13v1.755h2.182zm-.193-8.905v1.3l.77-.13c.065 0 .193.065.193.13v1.235c0 .065-.064.13-.128.13l-.706-.13-.065.715c-.192 1.495-1.412 2.6-2.888 2.6-1.477 0-2.697-1.105-2.89-2.6l-.063-.715-.707.13c-.064 0-.192-.065-.192-.13V55.39c0-.065.064-.13.192-.13l.77.13v-1.3c0-1.625 1.285-2.925 2.89-2.925 1.54-.065 2.824 1.3 2.824 2.925zm6.613-11.115h-9.437l4.75-7.085s0-.065.064-.065c2.504.065 4.558 2.145 4.558 4.745v2.405h.065zm6.227 14.365l-.064-.715-.707.13c-.064 0-.192-.065-.192-.13V55.39c0-.065.064-.13.192-.13l.77.13v-1.3c0-1.625 1.285-2.925 2.89-2.925 1.605 0 2.889 1.3 2.889 2.925v1.3l.77-.13c.064 0 .193.065.193.13v1.235c0 .065-.065.13-.129.13l-.706-.13-.064.715c-.193 1.495-1.413 2.6-2.89 2.6-1.54 0-2.76-1.105-2.952-2.6zm8.73 9.295H56.52v-.845c0-1.56 1.22-2.795 2.76-2.795h2.183V61.24c.257.065.578.13.898.13.321 0 .578-.065.9-.13v1.755h2.246c1.54 0 2.76 1.235 2.76 2.795v.845z"/>
    </g>
</svg>
