<svg xmlns="http://www.w3.org/2000/svg" width="88" height="88" viewBox="0 0 88 88">
    <g fill="none" fill-rule="evenodd">
        <circle cx="44" cy="44" r="44" fill="#A1C0C0"/>
        <path fill="#FFF" fill-rule="nonzero" d="M68.81 40.1v-.647c0-3.17-2.546-5.694-5.6-5.694h-1.465v-1.553c1.4-.841 2.355-2.2 2.737-3.753.827-.194 1.463-.97 1.463-1.877v-1.811c0-.841-.572-1.618-1.336-1.812v-.065C64.61 19.653 62 17 58.82 17c-3.183 0-5.792 2.653-5.792 5.888v.065c-.763.259-1.336.97-1.336 1.812v1.811c0 .906.636 1.683 1.464 1.877.381 1.553 1.336 2.912 2.736 3.753v1.553h-1.464c-3.118 0-5.6 2.588-5.6 5.694v4.465h-3.182v-3.042c0-3.235-2.609-5.888-5.79-5.888h-1.528v-2.2c1.337-.776 2.355-2.2 2.673-3.817.827-.13 1.464-.906 1.464-1.812v-1.747c0-.841-.573-1.553-1.273-1.747v-.13c0-3.235-2.482-5.823-5.6-5.823-3.055 0-5.6 2.653-5.6 5.823v.13a1.8 1.8 0 0 0-1.336 1.747v1.812c0 .905.636 1.682 1.463 1.811a5.904 5.904 0 0 0 2.291 3.56c0 .064-.064.129-.064.193v2.2h-1.527c-3.182 0-5.79 2.653-5.79 5.888v3.042H20.7a.712.712 0 0 0 0 1.423h4.39v.065h20.555v-.065h3.182v9.124c0 .97.764 1.811 1.782 1.811h2.8V69.8c0 .906.764 1.682 1.655 1.682H62.7c.89 0 1.655-.776 1.655-1.682V56.276h2.736c.954 0 1.782-.776 1.782-1.811V40.359c-.064-.065-.064-.194-.064-.259zM39.917 23.535c-1.336-.388-1.845-2.523-1.845-2.523l-.255-1.424c1.273.841 2.1 2.265 2.1 3.947zm-8.718 0c0-2.523 1.973-4.594 4.39-4.594.828 0 1.528.259 2.165.647l-.764 1.23S35.209 23.6 31.2 23.665v-.13zm.064 4.789l-.064-.648-.636.13h-.128c-.318 0-.509-.259-.509-.582v-1.812c0-.26.191-.518.446-.518.063.065.127.065.254.065h.382l.191.065v-.065c3.182-.065 5.09-1.488 6.11-2.524.445.97 1.208 2.2 2.672 2.46v.064l.7-.13h.063c.319 0 .51.26.51.583v1.812c0 .323-.255.582-.51.582h-.063l-.637-.13-.063.648c-.255 2.264-2.1 4.011-4.327 4.011-2.291 0-4.137-1.747-4.391-4.011zm12.981 15.594H26.491v-3.042c0-2.458 1.973-4.4 4.327-4.4h2.927v-3.17c.573.194 1.146.323 1.782.323.446 0 .955-.064 1.337-.194v3.041h2.927c2.418 0 4.327 2.006 4.327 4.4v3.042h.127zM67.41 54.465c0 .194-.127.323-.318.323h-4.2v14.947c0 .13-.127.26-.255.26H55c-.127 0-.255-.13-.255-.26V54.788h-4.2c-.19 0-.318-.13-.318-.323V40.359v-.906c0-2.33 1.91-4.27 4.2-4.27h2.864V31.3l-.382-.194c-1.336-.647-2.227-1.941-2.418-3.494l-.127-.712-.764.13c-.255.064-.573-.195-.573-.454v-1.811c0-.26.191-.453.446-.453h.063l.828.13v-1.554c0-2.459 1.972-4.464 4.39-4.464 2.419 0 4.391 2.005 4.391 4.464v1.488l.828-.129h.063c.255 0 .446.194.446.453v1.812c0 .259-.191.453-.446.453h-.063l-.7-.065-.064.776c-.19 1.489-1.082 2.783-2.482 3.495l-.382.194v3.882h2.864c2.291 0 4.2 1.941 4.2 4.27v14.947zm-30.1-23.941a.643.643 0 0 0-.636-.648h-1.91a.643.643 0 0 0-.636.648c0 .323.255.647.637.647h1.909a.643.643 0 0 0 .636-.647z"/>
    </g>
</svg>
