<svg xmlns="http://www.w3.org/2000/svg" width="88" height="88" viewBox="0 0 88 88">
    <g fill="none" fill-rule="evenodd">
        <circle cx="44" cy="44" r="44" fill="#82BB6E"/>
        <path fill="#FFF" fill-rule="nonzero" d="M31.194 18v4.29c-.394-.065-.788-.13-1.182-.13-2.561 0-4.663 2.08-4.728 4.615-.591.195-1.051.845-1.051 1.495v1.365c0 .715.525 1.365 1.182 1.56.328 1.235 1.116 2.21 2.101 2.86v1.105h-.919c-2.496 0-4.597 2.015-4.597 4.55v14.04h3.546L26.926 70h8.208l1.708-17.225.131-6.11H65.41V18H31.194zm-4.466 12.415l-.065-.715-.723.13c-.131 0-.262-.065-.262-.195V28.27c0-.13.131-.26.262-.195l.788.13V26.84c0-1.82 1.51-3.25 3.284-3.25 1.839 0 3.284 1.495 3.284 3.25v1.3l.788-.065h.065c.132 0 .197.13.197.195v1.365c0 .13-.131.26-.262.195l-.723-.13-.065.715c-.197 1.625-1.642 2.86-3.284 2.86-1.642.065-3.087-1.17-3.284-2.86zM35.66 43.87l-.197 8.775-1.642 15.99h-5.582l-1.38-16.315h-3.48V39.645c0-1.755 1.445-3.12 3.152-3.12h2.43v-1.95c.329.065.657.13 1.05.13.33 0 .723-.065 1.052-.13v1.95h17.009c1.641 0 3.02 1.17 3.349 2.665H40.388c-2.561 0-4.728 2.145-4.728 4.68zm28.37 1.365H37.039V43.87c0-1.82 1.51-3.25 3.283-3.25h12.544v-.715c0-2.6-2.167-4.745-4.794-4.745h-15.63v-1.105c1.05-.65 1.839-1.625 2.101-2.86.657-.195 1.182-.78 1.182-1.56V28.27c0-.715-.46-1.3-1.05-1.495 0-1.625-.854-2.99-2.102-3.835v-3.575H64.03v25.87zM40.322 27.88h18.191a.725.725 0 0 0 .723-.715.725.725 0 0 0-.723-.715h-18.19a.725.725 0 0 0-.723.715c0 .39.328.715.722.715zm0 3.77h18.191a.725.725 0 0 0 .723-.715.725.725 0 0 0-.723-.715h-18.19a.725.725 0 0 0-.723.715c0 .455.328.715.722.715z"/>
    </g>
</svg>
