<svg xmlns="http://www.w3.org/2000/svg" width="88" height="88" viewBox="0 0 88 88">
    <g fill="none" fill-rule="evenodd">
        <circle cx="44" cy="44" r="44" fill="#737365"/>
        <path fill="#FFF" fill-rule="nonzero" d="M57.746 50.41c-.507 0-1.014.065-1.457.26-1.585-.975-3.55-.39-4.69.715-.824.845-4.184 4.485-5.134 5.46h-6.021v-.325h3.359c2.979 0 3.866-3.185 3.93-4.81 0-.195-.064-.39-.19-.585a.795.795 0 0 0-.571-.26h-12.17c-3.865 0-4.88 1.885-6.02 3.9-1.078 1.95-6.338 12.61-6.592 13.065-.127.26-.127.52.064.78.126.26.38.39.633.39h8.937a.823.823 0 0 0 .76-.52c1.585-5.005 3.233-5.005 5.008-5.005H49.57c.19 0 .38-.065.57-.26L60.156 52.75c.253-.325.317-.78 0-1.04-.634-.845-1.458-1.235-2.409-1.3zm-5.07 2.08c.38-.39 1.204-.845 1.965-.78-.95 1.04-4.183 4.29-5.07 5.135h-.951c1.394-1.495 3.486-3.705 4.056-4.355zm-3.422 9.36H37.592c-1.838 0-4.374 0-6.275 5.59h-7.162c1.394-2.86 5.07-10.27 5.958-11.83 1.077-1.95 1.71-3.055 4.69-3.055h11.282c-.19.975-.698 2.47-2.282 2.47h-4.12c-.444 0-.76.325-.76.78v1.885c0 .455.316.78.76.78h10.14a.71.71 0 0 0 .508-.195c.19-.195 4.69-4.615 5.514-5.46.127-.13.317-.26.507-.39.127 0 .19-.065.254-.13a2.57 2.57 0 0 1 1.014-.195c.253 0 .57.065.76.195l-9.126 9.555zm16.605-15.34h-1.584v-3.77c0-10.4-7.606-18.98-17.43-20.28.444-.585.634-1.3.634-2.015 0-1.885-1.521-3.445-3.36-3.445-1.837 0-3.358 1.56-3.358 3.445 0 .78.253 1.495.697 2.08-9.634 1.43-17.113 9.945-17.113 20.28v3.77h-1.584c-.444-.065-.761.325-.761.78s.317.78.76.78h43.1c.443 0 .76-.325.76-.78s-.38-.845-.76-.845zM44.12 18.56c1.015 0 1.839.845 1.839 1.885s-.824 1.885-1.838 1.885c-1.014 0-1.838-.845-1.838-1.885s.824-1.885 1.838-1.885zm18.635 27.95H25.866v-3.77c0-10.4 8.24-18.915 18.444-18.915 10.204 0 18.444 8.45 18.444 18.915v3.77zm-25.29-18.785c-3.485 1.69-6.274 4.55-7.922 8.125-.19.39 0 .845.38 1.04a.56.56 0 0 0 .317.065c.317 0 .57-.195.698-.455 1.457-3.25 3.993-5.85 7.162-7.345.38-.195.57-.65.38-1.04-.19-.39-.634-.585-1.014-.39z"/>
    </g>
</svg>
