<svg xmlns="http://www.w3.org/2000/svg" width="88" height="88" viewBox="0 0 88 88">
    <g fill="none" fill-rule="evenodd">
        <circle cx="44" cy="44" r="44" fill="#75909D"/>
        <path fill="#FFF" fill-rule="nonzero" d="M57.502 53V36c2.945-1.438 5.04-4.446 5.04-7.977 0-3.727-2.422-7.127-5.957-8.37-.261-.065-.523 0-.785.132-.196.13-.327.392-.327.653v7.847h-3.797v-7.847c0-.261-.13-.523-.327-.653-.13-.131-.458-.197-.654-.066-3.535 1.243-5.957 4.577-5.957 8.37 0 3.53 2.03 6.538 5.04 7.976V53c-2.945 1.438-5.04 4.446-5.04 7.977 0 3.727 2.422 7.127 5.957 8.37.261.065.523.065.72-.132.196-.13.327-.392.327-.653v-7.847h3.796v7.847c0 .261.131.523.327.653.131.066.328.131.459.131.065 0 .196 0 .261-.065 3.535-1.243 5.957-4.577 5.957-8.37A8.996 8.996 0 0 0 57.502 53zM46.309 28.023a7.276 7.276 0 0 1 3.862-6.408v7.454c0 .458.327.785.785.785h5.368c.458 0 .785-.327.785-.785v-7.454a7.276 7.276 0 0 1 3.862 6.408c0 3.989-3.273 7.258-7.331 7.258-4.058.065-7.33-3.204-7.33-7.258zm9.622 8.565v15.758a8.811 8.811 0 0 0-2.291-.327c-.785 0-1.57.131-2.29.327V36.588c.72.197 1.505.327 2.29.327.785 0 1.505-.13 2.29-.327zm1.178 30.731v-7.388c0-.458-.327-.785-.785-.785h-5.368c-.458 0-.785.327-.785.785v7.454a7.276 7.276 0 0 1-3.862-6.408c0-3.989 3.273-7.258 7.331-7.258s7.33 3.27 7.33 7.258a7.435 7.435 0 0 1-3.86 6.342zM40.091 36.785v-5.82c0-2.877-2.095-5.296-4.778-5.688v-4.642c0-.458-.328-.785-.786-.785h-6.742c-.392 0-.785.392-.785.785v38.903c0 .458.327.785.785.785h.262v4.708c0 .457.328.784.786.784h1.505v2.55c0 .458.327.785.786.785.458 0 .785-.327.785-.785v-2.55h1.506c.458 0 .785-.327.785-.784v-4.708h.262c.458 0 .785-.327.785-.785V26.912c1.768.392 3.208 2.092 3.208 4.053v5.754a2.747 2.747 0 0 0-2.03 2.681 2.764 2.764 0 0 0 2.75 2.746 2.764 2.764 0 0 0 2.749-2.746c.13-1.242-.72-2.288-1.833-2.615zm-7.396 27.461h-3.077v-3.923h3.011v3.923h.066zm1.047-5.492H28.57V26.846h5.17v31.908zm0-33.477H28.57v-3.858h5.17v3.858zm5.563 15.3a1.173 1.173 0 0 1-1.178-1.177c0-.654.524-1.177 1.178-1.177.655 0 1.179.523 1.179 1.177s-.524 1.177-1.179 1.177z"/>
    </g>
</svg>
