<svg xmlns="http://www.w3.org/2000/svg" width="88" height="88" viewBox="0 0 88 88">
    <g fill="none" fill-rule="evenodd">
        <circle cx="44" cy="44" r="44" fill="#AAAA96"/>
        <path fill="#FFF" fill-rule="nonzero" d="M65.61 29.44l-3.845-5.72L65.61 18H49.712c-.39 0-.651.325-.651.715V41.14l-4.43-5.265c-.913-1.04-2.15-1.625-3.519-1.625h-.977v-.78c1.042-.585 1.824-1.495 2.085-2.6.716-.195 1.172-.78 1.172-1.495V28.14c0-.65-.456-1.235-1.042-1.43-.065-2.34-2.15-4.225-4.69-4.225-1.304 0-2.542.52-3.389 1.3 0-.065-.065-.13-.13-.195-1.108-1.17-2.932-1.105-3.193-1.105-2.54 0-4.625 1.885-4.69 4.225-.587.195-1.043.78-1.043 1.43v1.235c0 .715.521 1.3 1.238 1.495a4.352 4.352 0 0 0 2.085 2.6v.78h-.977C25.02 34.25 23 36.135 23 38.475l.456 16.25h2.997V70h8.6c.065 0 .195 0 .26-.065h20.002c.391 0 .717-.325.717-.715a.722.722 0 0 0-.717-.715H50.43v-19.37l1.824 1.365 2.476-2.665-4.3-5.07V29.44h15.18zm-27.95-5.59c1.823 0 3.322 1.3 3.322 2.925v1.3l.782-.065c.13 0 .26.065.26.13v1.235c0 .065-.13.13-.26.13l-.717-.13-.065.715c-.13.975-.847 1.82-1.824 2.275l-.391.195v3.055h2.41c.978 0 1.825.39 2.476 1.17l5.473 6.5v3.12l-3.844-2.86h-.065c-.065 0-.065-.065-.13-.065h-.13-.066-.195c-.066 0-.066 0-.13.065-.066 0-.066.065-.131.065s-.065.065-.13.065l-.066.065v.065c0 .065-.065.065-.065.13v.195l-.26 9.23h-3.062v15.21h-6.19V53.36H31.47l-.456-14.885c0-1.56 1.433-2.795 3.127-2.795h2.41v-3.055l-.39-.195c-.978-.455-1.694-1.3-1.825-2.275l-.065-.715-.716.13c-.13 0-.261-.065-.261-.13v-1.235c0-.065.13-.13.26-.13l.782.13v-1.3c0-1.755 1.499-3.055 3.323-3.055zM24.823 53.36l-.456-14.885c0-1.56 1.434-2.795 3.127-2.795h2.411v-3.055l-.39-.195c-.978-.455-1.695-1.3-1.825-2.275l-.065-.715-.717.13c-.13 0-.26-.065-.26-.13v-1.235c0-.065.13-.13.26-.13l.782.13v-1.3c0-1.625 1.498-2.925 3.323-2.925h.065s1.368-.065 2.085.65c.065.13.195.13.325.195a4.868 4.868 0 0 0-.586 1.95c-.586.195-1.042.78-1.042 1.43v1.235c0 .715.52 1.3 1.237 1.495a4.352 4.352 0 0 0 2.085 2.6v.715h-.977c-2.54 0-4.56 1.885-4.56 4.225l.456 16.25h2.996V68.57h-5.212V53.36h-3.062zm24.237 15.21h-6.906V54.725h2.997l.26-9.23 3.583 2.665v20.41h.066zm3.778-20.735l-.781.845-1.63-1.235V44.91l2.411 2.925zm7.297-24.115l2.867 4.355H50.429V19.43h12.574l-2.867 4.29z"/>
    </g>
</svg>
