<?xml version="1.0" encoding="utf-8"?>
<!-- Generator: Adobe Illustrator 22.1.0, SVG Export Plug-In . SVG Version: 6.00 Build 0)  -->
<svg version="1.1" id="IT_support" xmlns="http://www.w3.org/2000/svg" xmlns:xlink="http://www.w3.org/1999/xlink" x="0px" y="0px"
	 width="140px" height="140px" viewBox="0 0 140 140" style="enable-background:new 0 0 140 140;" xml:space="preserve">
<style type="text/css">
	.st0{fill:#3C3C3C;}
	.st1{fill:#FFFFFF;}
</style>
<circle id="Ellipse_2_copy_9" class="st0" cx="70" cy="70" r="70"/>
<path class="st1" d="M103.5,73.2c0,0-0.1-0.1-0.1-0.1L87.7,62.6V44.1c0-0.4-0.2-0.7-0.5-0.9c0,0-0.1-0.1-0.1-0.1L70.7,32.2
	c-0.4-0.3-0.9-0.3-1.3,0L53.6,43.1c0,0,0,0,0,0c-0.1,0.1-0.2,0.1-0.2,0.2c0,0,0,0,0,0c0,0,0,0,0,0c-0.1,0.1-0.1,0.2-0.2,0.4
	c0,0,0,0.1,0,0.1c0,0.1,0,0.1,0,0.2v18.1L37.5,73c0,0,0,0,0,0c-0.1,0.1-0.2,0.1-0.2,0.2c0,0,0,0,0,0c0,0,0,0,0,0
	c-0.1,0.1-0.1,0.2-0.2,0.4c0,0,0,0.1,0,0.1c0,0.1,0,0.1,0,0.2v18.9c0,0.4,0.2,0.8,0.5,1l16.1,10.8c0.2,0.1,0.4,0.2,0.7,0.2l0,0
	c0,0,0,0,0,0c0,0,0,0,0,0l0,0c0.1,0,0.1,0,0.2,0c0,0,0,0,0,0c0.2,0,0.3-0.1,0.4-0.2l15.4-10.3L86,104.8c0.2,0.1,0.4,0.2,0.7,0.2l0,0
	c0,0,0,0,0,0c0,0,0,0,0,0l0,0c0.1,0,0.2,0,0.2,0c0,0,0,0,0,0c0.2,0,0.3-0.1,0.4-0.2L103.5,94c0.3-0.2,0.5-0.6,0.5-1V74.1
	C104,73.8,103.8,73.4,103.5,73.2z M97.4,76.4l-1.7,1.2l-14.3-9.5l5-3.5l14.3,9.5L97.4,76.4z M63.3,77.4L49,67.9l5-3.5l14.3,9.5
	l-3.5,2.4L63.3,77.4z M55.4,62.4V46.3l13.7,9.2v16.1L55.4,62.4L55.4,62.4z M72.7,74.1l6-4.1l14.2,9.4l-6.1,4.1L72.7,74.1z
	 M85.3,46.3v16.1l-13.7,9.2V55.8l5.6-3.9v4.6l3.1-2.1l0,0v-4.6l1.9-1.3L85.3,46.3z M70,34.6l14.3,9.5l-3.2,2.2l-1.8,1.2L65,38.1
	L70,34.6z M62.3,39.9l14.2,9.4l-6.1,4.1l-14.1-9.4L62.3,39.9z M46.3,69.8l14.2,9.4l-6.1,4.1l-14.1-9.4L46.3,69.8z M53.1,101.4
	l-13.7-9.2V76.2l13.7,9.2V101.4z M69.3,92.2l-13.7,9.2V85.6l5.6-3.9v4.6l3.1-2.1l0,0v-4.6l1.9-1.3l3.2-2.1V92.2z M85.5,101.6
	l-13.7-9.2V76.3l13.7,9.2V101.6z M101.7,92.4l-13.7,9.2V85.8l5.6-3.9v4.6l3.1-2.1v-4.6l1.9-1.3l3.2-2.1V92.4z"/>
</svg>
