<svg xmlns="http://www.w3.org/2000/svg" width="88" height="88" viewBox="0 0 88 88">
    <g fill="none" fill-rule="evenodd">
        <circle cx="44" cy="44" r="44" fill="#3C3C3C"/>
        <path fill="#FFF" fill-rule="nonzero" d="M61.293 62.01c0-.063.064-.126.064-.189v-21.6c0-1.705-1.414-3.032-3.086-3.032h-8.035c.578-.884 1.028-1.831 1.285-2.905 1.158-.126 2.058-1.137 2.058-2.337v-2.463a2.32 2.32 0 0 0-1.929-2.273v-.316c.064-4.358-3.6-7.895-7.971-7.895-4.436 0-8.036 3.537-8.036 7.895v.316c-1.093.189-1.929 1.136-1.929 2.336v2.464c0 1.2.9 2.21 2.122 2.336.193 1.01.643 2.021 1.285 2.906h-7.907c-1.735 0-3.085 1.39-3.085 3.031v21.6c0 .063 0 .127.064.19a2.21 2.21 0 0 0-.129.631v2.78C26 66.304 26.707 67 27.543 67h32.336c.835 0 1.542-.695 1.542-1.579v-2.779c0-.19-.064-.442-.128-.631zM37.057 26.896c0-3.6 2.957-6.506 6.622-6.506 3.664 0 6.621 2.906 6.621 6.506v.316c-2.314-.506-3.086-3.727-3.086-3.727l-.385-1.579-.9 1.327c0 .063-2.7 3.979-8.872 3.979v-.316zm-.064 5.873l-.772.127h-.192c-.515 0-.965-.442-.965-.948v-2.463c0-.505.386-.947.9-.947.065.063.193.063.322.126h.707c4.886 0 7.843-2.274 9.193-3.6.578 1.326 1.8 3.284 4.05 3.6l.321-.063.514-.063h.129c.514 0 .964.442.964.947v2.463c0 .506-.45.948-.964.948h-.193l-.707-.127-.064.758c-.193 1.39-.772 2.653-1.8 3.663h-9.579c-.964-1.01-1.607-2.273-1.8-3.663l-.064-.758zm-9.45 7.453c0-.884.771-1.642 1.671-1.642h9.129c.064.063.193.063.257.063s.193 0 .257-.063h19.35c.9 0 1.672.758 1.672 1.642v20.905H27.543V40.221zm32.464 25.2c0 .063-.064.19-.128.19H27.543c-.064 0-.129-.064-.129-.19v-2.779c0-.063.065-.19.129-.19h32.336c.064 0 .128.064.128.19v2.78zM39.436 50.516h8.485a.707.707 0 0 0 .708-.695.707.707 0 0 0-.708-.695h-8.485a.707.707 0 0 0-.707.695c0 .442.321.695.707.695z"/>
    </g>
</svg>
