<svg xmlns="http://www.w3.org/2000/svg" width="88" height="88" viewBox="0 0 88 88">
    <g fill="none" fill-rule="evenodd">
        <circle cx="44" cy="44" r="44" fill="#B4B4B4"/>
        <path fill="#FFF" fill-rule="nonzero" d="M62.924 28.276V22H25.076v6.276H16V66h56V28.276h-9.076zM38.336 50.73c0 .518-.837 1.1-1.996 1.1-1.158 0-1.995-.582-1.995-1.1 0-2.847 2.446-5.37 5.986-6.405-1.223 1.552-1.931 3.817-1.995 6.405zm5.535-6.923c.065 0 .065 0 0 0 2.189 0 4.055 3.235 4.12 7.053-.193.582-1.738 1.359-3.991 1.359-2.446 0-4.055-.906-4.055-1.489 0-.129-.065-.258-.065-.323.194-3.624 1.931-6.535 3.991-6.6zM36.47 64.447c.064-.13.129-.259.129-.388V53.382c1.094-.064 1.995-.453 2.574-1.1.966.842 2.704 1.424 4.828 1.424 2.06 0 3.862-.582 4.763-1.424.58.583 1.545 1.036 2.575 1.036v10.74c0 .13.064.26.129.39H36.469zM49.664 50.73c0-.129-.064-.258-.128-.388-.13-2.459-.902-4.594-1.996-6.082 3.476.97 5.986 3.43 6.115 6.276v.194c0 .518-.837 1.1-1.995 1.1-1.159 0-1.996-.582-1.996-1.1zm20.791 13.718H52.818c.065-.13.13-.259.13-.388v-10.87c1.222-.324 2.059-1.165 2.252-2.2.064-.065.064-.195.064-.26 0-4.658-5.02-8.476-11.2-8.476H44h-.064c-6.115.065-11.072 3.818-11.072 8.476v.065c0 1.1.966 2.07 2.253 2.394v10.87c0 .13.065.26.129.39H17.545V29.828h9.076v-6.276h34.823v6.276h9.076v34.618h-.065zM30.933 29.96H56.36c.45 0 .772-.324.772-.777s-.322-.776-.772-.776H30.933c-.45 0-.772.323-.772.776s.386.777.772.777zm-10.685 4.076c0 .389.322.777.773.777h45.25c.45 0 .773-.324.773-.777s-.322-.776-.773-.776h-45.25c-.387 0-.773.388-.773.776zm46.023 4.077h-45.25c-.45 0-.773.323-.773.776s.322.777.773.777h45.25c.45 0 .773-.324.773-.777s-.322-.776-.773-.776zm0 4.788h-8.496c-.45 0-.773.324-.773.776 0 .453.322.777.773.777h8.496c.45 0 .773-.324.773-.777 0-.452-.322-.776-.773-.776zm0 4.788h-8.496c-.45 0-.773.324-.773.777s.322.776.773.776h8.496c.45 0 .773-.323.773-.776 0-.389-.322-.777-.773-.777zm0 4.853h-8.496c-.45 0-.773.324-.773.777s.322.776.773.776h8.496c.45 0 .773-.323.773-.776s-.322-.777-.773-.777zm0 4.788h-8.496c-.45 0-.773.324-.773.777 0 .388.322.776.773.776h8.496c.45 0 .773-.323.773-.776s-.322-.777-.773-.777zM30.611 42.9h-9.59c-.45 0-.773.324-.773.776 0 .453.322.777.773.777h9.526c.45 0 .773-.324.773-.777 0-.452-.322-.776-.709-.776zm0 4.788h-9.59c-.45 0-.773.324-.773.777s.322.776.773.776h9.526c.45 0 .773-.323.773-.776 0-.389-.322-.777-.709-.777zm0 4.853h-9.59c-.45 0-.773.324-.773.777s.322.776.773.776h9.526c.45 0 .773-.323.773-.776s-.322-.777-.709-.777zm0 4.788h-9.59c-.45 0-.773.324-.773.777 0 .388.322.776.773.776h9.526c.45 0 .773-.323.773-.776s-.322-.777-.709-.777z"/>
    </g>
</svg>
